<svg xmlns="http://www.w3.org/2000/svg" width="579" height="1216" fill="none"><g fill="#FF0" clip-path="url(#a)"><path d="M235.61 995.26v-3.37c-2.53-.19-5.12-.6-7.74-1.19 2.56 1.42 5.14 2.94 7.74 4.56ZM443.17 1018.91c13.74-7.09 28.81-10.49 43.72-10.56 10.01.05 20.07 1.6 29.77 4.75 1.58-.81 3.42-1.25 5.43-1.25 2.99 0 6.12.95 9 2.72.96-2.34 2.87-3.95 5.48-4.69-2.58-1.69-4.95-3.13-7.07-4.22-12.91-6.66-27.63-10.21-42.6-10.28-14.98.07-29.7 3.63-42.61 10.28-5.8 2.99-13.42 8.48-22.21 14.99-1.38 1.02-2.8 2.07-4.23 3.14-1.96 1.46-3.96 2.94-5.99 4.44-4.87 3.6-9.98 7.27-15.23 10.87 2.92 1.97 5.87 4 8.85 6.11 5.28-3.79 10.31-7.52 14.98-10.98 8.93-6.61 16.72-12.22 22.72-15.32h-.01ZM202.27 687.02c12.99-6.87 27.23-10.15 41.33-10.24 14.1.08 28.34 3.37 41.33 10.24 2.61 1.38 5.59 3.28 8.86 5.55 3.05-1.78 6.07-3.43 9.05-4.9.44-.21.87-.42 1.31-.62-.68-.46-1.35-.91-2.03-1.36-6.81-4.51-13.48-8.54-19.92-11.7-.59-.29-1.18-.57-1.78-.84-10.96-4.68-23.03-7.6-35.3-7.83h-.1c-.43 0-.86-.01-1.29-.01h-.3c-.43 0-.87 0-1.29.01h-.1c-12.27.23-24.33 3.15-35.29 7.83-.59.27-1.19.55-1.78.84-6.43 3.16-13.1 7.19-19.92 11.7-4.89 3.24-9.86 6.72-14.88 10.29-2.11 1.5-4.23 3.02-6.35 4.54 2.89 2.18 5.17 5.27 6.71 9.08 3.87-2.92 7.57-5.73 10.96-8.3 8.14-6.16 15.25-11.37 20.77-14.28h.01Z"/><path d="M239.11 707.52c.12 0 .25-.02.37-.02.55-.03 1.11-.06 1.66-.08.14 0 .29-.02.43-.02.67-.02 1.33-.03 2-.03h.05c.67 0 1.33.01 2 .03.14 0 .28 0 .43.02.56.02 1.11.05 1.66.08.12 0 .25.02.38.02 6.06.41 12.1 1.64 17.91 3.56 1.54-1.1 3.08-2.2 4.6-3.27 2.36-1.67 4.69-3.29 7.01-4.88-.59-.31-1.19-.62-1.78-.91-9.99-4.48-20.94-7.2-32.23-7.25-11.29.05-22.24 2.78-32.22 7.25-.76.37-1.52.76-2.27 1.16-6.75 3.62-13.78 8.46-20.97 13.82.66-.02 1.33-.03 1.99-.03h.05c.86 0 1.72.01 2.58.03h.05c4.37.12 8.65.53 12.83 1.21.97-.58 1.94-1.14 2.94-1.67 8.83-4.78 18.63-7.91 28.56-8.87.66-.07 1.32-.12 1.99-.16l-.02.01Z"/><path d="M210.86 699.25c9.97-4.83 20.86-7.29 32.42-7.29h.64c11.55 0 22.44 2.46 32.42 7.29.91.44 1.81.89 2.7 1.37.36.19.72.4 1.07.6 3.75-2.53 7.45-4.94 11.1-7.14-2.7-1.83-5.16-3.38-7.35-4.53-12.2-6.45-26.11-9.89-40.27-9.97-14.15.08-28.06 3.52-40.26 9.97-5.39 2.85-12.44 8.02-20.58 14.18-1.45 1.1-2.94 2.24-4.46 3.39-2.22 1.69-4.49 3.42-6.8 5.15.35 1.22.64 2.5.85 3.84.13.8.21 1.63.28 2.46 3.55-.67 7.17-1.12 10.85-1.37.28-.21.56-.43.83-.64 8.21-6.23 16.14-11.8 23.86-15.94.89-.48 1.8-.93 2.7-1.37ZM237.17 926.96h-.1c-.43-.01-.86-.01-1.29-.01h-.3c-.43 0-.86 0-1.29.01h-.1c-12.27.23-24.33 3.15-35.3 7.83-.59.28-1.19.55-1.78.84-6.43 3.15-13.1 7.19-19.91 11.7a445.19 445.19 0 0 0-10.21 6.99c3.09 2.21 6.21 4.41 9.34 6.59 7.02-5.27 13.17-9.66 18.06-12.24 12.99-6.86 27.23-10.15 41.33-10.24 10.27.06 20.62 1.84 30.5 5.44-.79-4.03-.54-7.79.74-11.26-9.42-3.39-19.49-5.45-29.71-5.64l.02-.01ZM85.12 1010.14c-.18 0-.36-.01-.54-.02-.41 0-.82-.02-1.23-.02h-.21c-.41 0-.82 0-1.23.02-.17 0-.35 0-.53.02-.26 0-.52.02-.78.03-10.88.44-21.58 3.64-31.08 8.71a87.17 87.17 0 0 1 15.87 5.01 73.026 73.026 0 0 1 17.86-2.75c2.42.07 4.84.26 7.25.57 3.43-2.39 6.84-4.81 10.21-7.23.68-.49 1.36-.97 2.04-1.46-5.47-1.63-11.13-2.63-16.84-2.86-.26 0-.52-.02-.78-.03l-.01.01Z"/><path d="M152.22 696.47c.79 0 1.58.15 2.36.44 2.43.27 4.68.95 6.71 2.01.28-.2.57-.4.85-.61 9.09-6.52 17.88-12.81 26.4-18.21 3.51-2.36 7.22-4.55 11.09-6.52 12.82-6.56 27.35-10.76 41.96-11.12.63-.02 1.27-.03 1.91-.03h.23c.64 0 1.27.01 1.9.03 14.61.35 29.13 4.56 41.96 11.12 3.86 1.97 7.57 4.16 11.08 6.52 2.81 1.78 5.64 3.66 8.51 5.6 3.49-1.47 7.08-2.71 10.76-3.72-1.78-1.32-3.55-2.63-5.28-3.91-1.44-1.07-2.85-2.12-4.23-3.14-8.8-6.51-16.41-12-22.22-14.99-12.9-6.66-27.63-10.21-42.6-10.28-14.98.07-29.7 3.62-42.6 10.28-5.8 2.99-13.42 8.48-22.22 14.99-1.38 1.02-2.79 2.08-4.23 3.14-1.96 1.46-3.96 2.94-5.99 4.44-9.23 6.81-19.3 13.93-29.65 20.19 2.18 1.63 4.19 3.57 5.89 5.74.36.47.71.93 1.03 1.4.14-.09.27-.19.41-.28a9.193 9.193 0 0 1-1.22-4.6c0-4.68 3.23-8.49 7.2-8.49h-.01ZM516.77 1046.83c.12-.07.26-.1.38-.16-1.84-.68-3.71-1.3-5.59-1.86 1.86.69 3.42 1.51 4.6 2.45.19-.16.4-.3.62-.42l-.01-.01ZM235.63 982.91c5.43.15 10.86.92 16.22 2.31 4.6-1.67 9.31-3.81 14.08-6.29-8.61-4.07-18.06-6.61-27.66-7-.26 0-.52-.02-.78-.03-.18 0-.36-.01-.54-.01-.41-.01-.82-.02-1.23-.02h-.2c-.41 0-.82 0-1.23.02-.18 0-.36 0-.54.01-.26 0-.52.02-.78.03-9.6.39-19.05 2.93-27.67 7 4.77 2.48 9.47 4.61 14.07 6.29a72.14 72.14 0 0 1 16.25-2.31h.01ZM83.25 994.63c-11.29.05-22.24 2.77-32.22 7.25-.76.37-1.52.76-2.27 1.16-6.74 3.62-13.78 8.46-20.97 13.82.66-.01 1.33-.03 1.99-.03h.05c.86 0 1.72.01 2.58.03h.05c4.37.12 8.65.53 12.83 1.21.97-.57 1.94-1.14 2.93-1.67 9.42-5.1 19.93-8.32 30.55-9.03.13 0 .25-.02.38-.02.55-.04 1.1-.06 1.66-.08.14 0 .28-.01.43-.02.67-.02 1.33-.03 2-.03h.04c.67 0 1.33.01 2 .03.14 0 .28.01.43.02.56.02 1.11.05 1.66.08.12 0 .25.02.37.02 6.07.41 12.1 1.64 17.91 3.57 1.54-1.1 3.08-2.19 4.6-3.27 2.36-1.67 4.69-3.29 7.01-4.88-.59-.31-1.19-.62-1.78-.91-9.99-4.48-20.93-7.2-32.23-7.25ZM147.98 711.75l-.69.48c1.34 2.48 2.14 5 2.36 7.44.37-.15.75-.26 1.14-.35.67-1.54 1.69-3.11 3.28-4.53-2.27-.5-4.16-1.38-5.66-2.64-.15-.13-.29-.27-.43-.4ZM533.53 1036.57c1.91 1.05 3.78 2.14 5.61 3.28-1.19-1.45-3.08-2.55-5.61-3.28ZM537.55 1054.48c2.2-4.01 3.25-7.48 3.15-10.26-5.17-3.27-10.25-6.22-15.19-8.64-.05-.02-.1-.05-.16-.07-.32 0-.63-.02-.95-.02-.85 0-1.73.02-2.64.06-1.82 5.06-4.26 6.95-6.22 7.6a87.02 87.02 0 0 1 12.68 5.46c2.74 1.45 5.87 3.46 9.33 5.87ZM338.41 769.22c.56-.03 1.11-.06 1.66-.08.14 0 .29-.01.43-.02.67-.02 1.33-.03 2-.03h.05c.66 0 1.33.01 2 .03.14 0 .29.01.43.02.56.02 1.11.05 1.66.08.13 0 .25.02.38.02 9.99.67 19.89 3.56 28.87 8.15 3.66-2 7.35-4.18 11.05-6.5-3.36-2.22-6.67-4.25-9.91-6-.75-.4-1.51-.79-2.27-1.16-9.99-4.47-20.93-7.2-32.22-7.25-11.29.05-22.24 2.78-32.23 7.25-.76.37-1.51.76-2.27 1.16-3.24 1.75-6.56 3.78-9.92 6 3.7 2.31 7.39 4.49 11.05 6.5 8.99-4.59 18.88-7.48 28.88-8.15.12 0 .25-.02.37-.02h-.01ZM298.8 703.19c13.74-7.09 28.81-10.49 43.73-10.56 14.92.07 29.98 3.47 43.72 10.56 6 3.09 13.79 8.7 22.72 15.31 7.95 5.89 16.95 12.57 26.45 18.98 2.96-1.95 5.89-3.8 8.78-5.54-8.8-5.74-17.59-12.03-26.12-18.13-1.79-1.28-3.58-2.55-5.35-3.8-10.88-7.68-21.51-14.78-31.58-19.71-11.53-5.65-23.86-8.32-36.1-8.65h-.34c-.3 0-.59-.01-.89-.02h-2.58c-.3 0-.59.01-.89.02h-.33c-12.23.32-24.57 3-36.1 8.65-10.07 4.93-20.7 12.03-31.58 19.71-1.78 1.25-3.56 2.52-5.35 3.8-8.53 6.1-17.33 12.39-26.13 18.13 2.9 1.74 5.82 3.59 8.78 5.54 9.5-6.42 18.5-13.1 26.45-18.99 8.93-6.61 16.71-12.22 22.72-15.31l-.01.01Z"/><path d="M309.78 760.98c9.98-4.83 20.86-7.29 32.42-7.29h.65c11.55 0 22.44 2.46 32.42 7.29.91.44 1.81.89 2.7 1.37 3.76 2.02 7.57 4.38 11.43 6.98 3.39-2.17 6.79-4.43 10.17-6.74-6.54-4.89-12.25-8.93-16.78-11.32-12.2-6.44-26.11-9.88-40.26-9.96-14.16.08-28.07 3.52-40.27 9.96-4.54 2.4-10.25 6.44-16.79 11.33 3.38 2.31 6.77 4.57 10.17 6.74 3.87-2.61 7.68-4.97 11.44-6.99.89-.48 1.79-.93 2.7-1.37ZM153.99 700.52l-.51-.13c-.43-.18-.86-.28-1.26-.28-1.94 0-3.65 2.27-3.65 4.84 0 1.2.36 2.92 2.08 4.37 1.81 1.51 4.7 2.31 8.37 2.31h.71l.69 3.52c-3.01 1.2-4.77 2.81-5.82 4.52 1.41.53 2.76 1.49 3.94 2.78 3.44-1.27 6.96-2.32 10.57-3.14-.06-.87-.14-1.74-.28-2.61-1.48-9.38-7.03-15.43-14.84-16.19v.01ZM454.15 1060.84c8.32-4.03 17.27-6.4 26.72-7.08.04-3.41 1.81-6.18 5.23-8.13 5.23-2.98 13.42-3.4 20.14-2.22a89.286 89.286 0 0 0-19.34-2.25c-14.16.09-28.07 3.52-40.27 9.97-4.53 2.4-10.24 6.44-16.78 11.32 3.38 2.31 6.78 4.57 10.17 6.74 3.87-2.61 7.68-4.97 11.43-6.99.89-.47 1.8-.93 2.7-1.37v.01ZM235.63 985.79c-.63-.02-1.25-.03-1.87-.03-3.44 0-6.89.3-10.31.82 4.18 1.27 8.25 2.12 12.17 2.43h.02c3.93-.31 8.01-1.17 12.2-2.44-3.44-.51-6.9-.8-10.33-.81-.63 0-1.25.01-1.87.03h-.01Z"/><path d="M342.52 738.51c14.1.08 28.33 3.37 41.32 10.23 4.89 2.59 11.04 6.98 18.06 12.24 3.14-2.17 6.26-4.38 9.35-6.59-3.43-2.41-6.83-4.75-10.2-6.98-6.81-4.51-13.48-8.54-19.92-11.7-.59-.29-1.18-.57-1.77-.84-10.96-4.68-23.03-7.6-35.3-7.83h-.1c-.43 0-.86-.01-1.29-.01H340.98c-12.27.23-24.33 3.15-35.3 7.83-.59.28-1.19.55-1.78.84-6.43 3.15-13.1 7.19-19.92 11.7a445.19 445.19 0 0 0-10.21 6.99c3.09 2.21 6.21 4.41 9.35 6.59 7.02-5.26 13.17-9.66 18.06-12.25 12.99-6.86 27.23-10.15 41.33-10.23l.01.01ZM516.73 1065.12c.17-.68.37-1.45.59-2.31-.08-.04-.16-.07-.24-.1-.98-.33-2.65-.71-4.07-1.02-3.54-.8-8.31-1.89-12.87-4.07-.78-.14-1.56-.28-2.35-.4.17 3.53-.74 5.9-2.76 7.05-2.8 1.59-6.69.29-9.39-1.47-2.07-1.34-4.18-3.42-4.22-5.39-.08-.27-.15-.54-.21-.81-9.27.77-18.24 3.27-26.54 6.99-.76.37-1.52.76-2.27 1.16-3.24 1.74-6.55 3.77-9.91 5.99 3.7 2.31 7.39 4.5 11.05 6.5 8.99-4.59 18.88-7.48 28.87-8.15.12 0 .25-.01.38-.02.55-.04 1.1-.06 1.66-.08.14 0 .28-.01.43-.02.66-.02 1.33-.03 2-.03h.05c.67 0 1.33 0 2 .03.14 0 .28.01.43.02.56.02 1.11.05 1.66.08.12.01.25.02.37.02 6.66.45 13.27 1.89 19.61 4.16 4.46-3.06 4.53-3.31 5.74-8.13h-.01Z"/><path d="M298.8 719.05c13.74-7.09 28.81-10.49 43.73-10.56 14.92.07 29.98 3.47 43.72 10.56 6 3.09 13.79 8.7 22.72 15.31 4.67 3.46 9.7 7.19 14.98 10.98 2.98-2.1 5.93-4.14 8.85-6.11-5.26-3.6-10.36-7.27-15.23-10.87-2.03-1.5-4.03-2.98-5.99-4.44-1.44-1.07-2.85-2.12-4.23-3.14-8.8-6.51-16.41-11.99-22.22-14.99-12.91-6.66-27.63-10.21-42.6-10.28-14.98.07-29.7 3.63-42.6 10.28-5.8 2.99-13.42 8.48-22.22 14.99-1.38 1.02-2.8 2.07-4.24 3.14-1.96 1.46-3.96 2.94-5.99 4.44-4.87 3.6-9.98 7.28-15.24 10.87 2.92 1.96 5.87 4 8.85 6.11 5.28-3.79 10.32-7.53 14.99-10.98 8.93-6.61 16.71-12.22 22.72-15.31ZM342.52 785.89c-.63-.02-1.25-.03-1.87-.03-3.44 0-6.89.3-10.31.81 4.17 1.27 8.24 2.12 12.17 2.43h.02c3.93-.31 8.01-1.16 12.2-2.44-3.44-.52-6.9-.8-10.32-.81-.63 0-1.25.01-1.87.03l-.02.01ZM534.26 1060.16c-.64.36-1.19.89-1.63 1.57l-3.56-1.73c.91-3.7-1.46-6.91-3.99-8.69-2.19-1.54-4.66-2.15-5.88-1.45-.38.22-.66.58-.82 1.07l-3.53-.26c-.52-.98-2.15-2.01-4.47-2.81-6.11-2.12-16.21-2.42-21.85.8-3.43 1.96-4.57 4.88-3.36 8.7l.07.68v-.07c.09.43 1.34 1.81 3.32 2.79.79.39 2.78 1.22 4.04.5 1.55-.88 1.84-4 .79-8.56l3.02-1.21c5.02 4.19 11.87 5.73 16.87 6.86 3.91.88 6.27 1.41 7.44 3 .51.69.68 1.48.49 2.23-.29 1.11-.53 2.06-.74 2.88-1.33 5.33-1.64 6.08-6.02 9.14 2.2.16 5.13.25 8.28.29 3.14-1.78 6.3-3.68 9.47-5.68-.58-2.74.12-6.1 2.11-10.06-.01 0-.02.01-.04.02l-.01-.01ZM250.85 721.85c3.43-2.39 6.84-4.81 10.21-7.23.68-.49 1.36-.97 2.04-1.46-5.47-1.62-11.13-2.63-16.84-2.86-.26 0-.52-.02-.78-.03-.18 0-.36 0-.54-.01-.41-.01-.82-.02-1.23-.02h-.2c-.41 0-.82 0-1.23.02-.18 0-.36 0-.53.01-.26 0-.52.02-.78.03-10.88.44-21.59 3.64-31.09 8.71a86.397 86.397 0 0 1 15.87 5.01 72.081 72.081 0 0 1 17.86-2.75c2.42.07 4.84.26 7.25.57l-.01.01Z"/><path d="M298.54 735.3c12.83-6.56 27.35-10.76 41.96-11.12l1.9-.03h.24c.64 0 1.27.01 1.91.03 14.61.35 29.13 4.56 41.96 11.12 3.86 1.97 7.57 4.16 11.08 6.52 5.26 3.33 10.61 7 16.08 10.85 2.63-1.89 5.23-3.75 7.81-5.58-1.32-.96-2.62-1.92-3.91-2.86-2.03-1.5-4.03-2.99-5.99-4.44-1.44-1.07-2.85-2.12-4.23-3.14-8.8-6.51-16.41-12-22.22-14.99-12.91-6.66-27.63-10.21-42.6-10.28-14.98.07-29.7 3.62-42.6 10.28-5.8 2.99-13.42 8.48-22.22 14.99-1.38 1.02-2.8 2.07-4.24 3.14-1.96 1.46-3.96 2.94-5.99 4.44-1.29.95-2.59 1.91-3.91 2.86 2.58 1.83 5.18 3.69 7.81 5.58 5.47-3.86 10.82-7.53 16.08-10.85 3.51-2.36 7.22-4.55 11.08-6.52ZM486.9 1038.37c7.37.04 14.78.97 22.03 2.82-.9-.97-1.64-2.21-2.13-3.66-.79-2.33-.94-5.29.1-8.3-6.02-1.39-12.21-2.21-18.46-2.32h-.1c-.43 0-.86-.01-1.29-.01h-.3c-.43 0-.86 0-1.29.01h-.1c-12.27.23-24.33 3.15-35.29 7.83-.59.27-1.19.55-1.78.84-6.43 3.15-13.1 7.19-19.91 11.7-3.37 2.23-6.77 4.57-10.2 6.98 3.09 2.21 6.21 4.41 9.34 6.59 7.01-5.26 13.16-9.66 18.05-12.24 12.99-6.86 27.23-10.15 41.33-10.24ZM247.48 724.18c-.67-.02-1.34-.04-2.01-.05-.63 0-1.25.02-1.87.03-.62-.02-1.25-.03-1.87-.03-4.33 0-8.68.46-12.95 1.27.35.17.71.33 1.07.5 1.15.56 2.3 1.16 3.45 1.77h9.02a425.8 425.8 0 0 0 5.17-3.49h-.01ZM393.32 578.82h.05c.86-.02 1.72-.03 2.58-.03h.05c.86 0 1.72.01 2.58.03h.05c4.42.12 8.76.54 12.99 1.24-1.39-2.41-3.26-4.4-5.37-5.75-2.29-1.46-4.64-2.01-6.63-1.55-1.33.31-2.52 1.1-3.51 2.34l-3.33.05c-.98-2.35-2.53-4.25-4.5-5.5-2.36-1.5-5.09-1.93-7.5-1.17-2.11.66-3.9 2.22-5.17 4.5l-1.53 1.14c-5.05 1.23-8.86 4.12-10.19 7.74-.37.99-.49 1.94-.39 2.75 9.34-3.56 19.33-5.5 29.83-5.78l-.01-.01Z"/><path d="M442.91 1035.16c12.83-6.55 27.35-10.76 41.96-11.12l1.9-.03H487.01c.63 0 1.27.01 1.9.03 6.45.16 12.89 1.07 19.18 2.6.8-1.35 1.87-2.68 3.27-3.93-.07-2.96.78-5.52 2.5-7.46l.01-.01a96.109 96.109 0 0 0-26.98-4c-14.98.08-29.7 3.63-42.61 10.28-5.8 3-13.42 8.48-22.21 14.99-1.38 1.03-2.8 2.08-4.23 3.15-1.96 1.46-3.96 2.94-5.99 4.44-1.29.95-2.59 1.9-3.91 2.87 2.58 1.83 5.18 3.69 7.81 5.58 5.46-3.85 10.82-7.52 16.08-10.85 3.51-2.36 7.22-4.54 11.08-6.52v-.02ZM321.3 863.69c-9.99-4.48-20.93-7.2-32.23-7.25-9.98.05-19.69 2.18-28.71 5.77 3.98 1.9 7.15 4.36 8.75 7.3a8.59 8.59 0 0 1 5.49-1.95c2.05 0 4.26.72 6.24 1.99 1.25-.15 2.5-.28 3.75-.36.12 0 .25-.02.38-.02.55-.04 1.1-.06 1.66-.08.14 0 .29-.01.43-.02.67-.02 1.33-.03 2-.03h.05c.67 0 1.33.01 2 .03.14 0 .28.01.43.02.55.02 1.11.05 1.66.08.12 0 .25.02.37.02 10 .67 19.89 3.56 28.88 8.15 3.66-2 7.35-4.18 11.05-6.49-3.36-2.23-6.67-4.26-9.92-6-.75-.4-1.51-.79-2.27-1.16h-.01ZM424.7 675.27c.1-.91.18-1.98.27-3.3.07-.99.15-2.12.26-3.4a7.43 7.43 0 0 0-.99-.05c-.95 0-2.16.1-3.56.22-1.9.16-4.05.34-6.37.34-3.69 0-6.9-.49-9.69-1.48.16.76.28 1.47.37 2.17 6.76.9 13.41 2.79 19.71 5.51v-.01ZM197.4 821.8c3.43-2.39 6.84-4.81 10.21-7.23.68-.49 1.36-.97 2.03-1.46-5.47-1.62-11.13-2.63-16.84-2.86-.26 0-.52-.02-.78-.03h-.53c-.41-.01-.82-.02-1.23-.02h-.2c-.41 0-.82 0-1.23.02h-.53l-.78.03c-10.88.44-21.58 3.64-31.08 8.71a87.17 87.17 0 0 1 15.87 5.01 72.081 72.081 0 0 1 17.86-2.75c2.42.07 4.84.26 7.25.57l-.02.01ZM507.54 884.58c-1.85-2.32-3.53-4.89-4.81-7.72-1.02 1.95-2.06 3.66-3.13 5.14 1.79 1.17 3.59 2.38 5.4 3.6.84-.35 1.69-.69 2.54-1.02ZM352.22 901.38c.31.59.57 1.19.82 1.78 2.31-1.64 4.62-3.3 6.92-4.95 1.48-1.06 2.94-2.11 4.4-3.15.36-1.08.54-2.04.4-2.74-.05-.26-.09-.47-.89-.47-.55 0-1.24.13-2.07.39-.72.22-1.64.33-2.75.33-1.59 0-3.63-.24-5.84-.7-1.94 1.35-3.91 2.68-5.89 4 1.71 1.01 3.43 2.71 4.89 5.51h.01ZM325.81 892.94c2.11 1.52 4.11 3.1 5.91 4.53.3.24.59.47.87.69 3.59-2.41 6.88-3.63 9.8-3.63.46 0 .96.03 1.47.11 1.89-1.23 3.75-2.48 5.6-3.73-4.09-1.23-8.16-3.1-10.55-5.5-4.33 2.68-8.71 5.22-13.11 7.54l.01-.01ZM397.71 857.23c13.75-7.09 28.81-10.48 43.73-10.56 14.92.07 29.98 3.47 43.72 10.56 1.21.63 2.5 1.36 3.86 2.18 3.36-1.72 7.32-2.63 11.8-2.63.87 0 1.74.04 2.61.1-7.6-5.59-14.22-10.24-19.39-12.9-12.9-6.66-27.63-10.21-42.6-10.28-14.98.08-29.7 3.63-42.6 10.28-5.8 2.99-13.42 8.48-22.22 14.99-1.38 1.03-2.8 2.07-4.23 3.15-1.96 1.46-3.96 2.94-5.99 4.44-3.36 2.48-6.84 5-10.4 7.51 3.34 1.15 6.74 2.94 9.9 5.2 3.15-2.31 6.19-4.56 9.1-6.71 8.93-6.61 16.72-12.22 22.72-15.32l-.01-.01ZM354.29 906.81c1.07-1.24 2.43-2.22 4.07-2.93.8-.35 1.99-1.66 3.14-3.33-2.49 1.78-4.98 3.57-7.48 5.35.09.31.19.62.27.91ZM170.36 891.03c-1.46 3.52-3.17 5.41-4.74 6.41 1.29.53 2.56 1.1 3.81 1.71.91.44 1.81.89 2.7 1.37.36.19.72.4 1.07.6 3.75-2.53 7.45-4.93 11.1-7.14-.57-.39-1.13-.76-1.67-1.12-3.04-1.17-7.17-1.79-12.28-1.83h.01Z"/><path d="M189.12 869.51c-2.31 0-5.17.76-5.68 4.35l-2.92 1.12c-2.86-2.52-6.27-3.97-9.36-3.97-2.17 0-4.05.72-5.27 2.03-1.21 1.3-1.8 3.18-1.71 5.45l-.75 1.56c-4.91 3.59-5.62 8.21-4.64 11.34.65 2.07 2.03 3.46 3.44 3.46 1.86 0 3.83-2.35 5.26-6.29l1.65-1.19c8.78-.08 15.12 1.39 18.96 4.37 2.64-1.51 5.25-2.91 7.83-4.18 3.81-1.86 7.74-3.43 11.78-4.72-4.02-8.32-12.66-13.36-18.61-13.36l.02.03ZM311.17 913.72c-1.05-.76-2.1-1.49-3.15-2.24-.64.9-1.31 1.61-1.97 2.16 1.92.08 4.16.31 6.2.85-.36-.26-.72-.51-1.08-.77ZM136.7 894.67c-11.29.05-22.24 2.78-32.23 7.25-.76.37-1.52.76-2.27 1.16-6.75 3.62-13.78 8.46-20.97 13.82.66-.02 1.33-.03 2-.03h.04c.86 0 1.72.01 2.58.04h.05c4.37.12 8.65.53 12.83 1.21.97-.58 1.94-1.14 2.94-1.67 9.42-5.1 19.93-8.32 30.55-9.03.12 0 .25-.02.38-.02.55-.04 1.1-.06 1.66-.08.14 0 .28-.01.43-.02.66-.02 1.33-.03 2-.03h.05c.67 0 1.33.01 2 .03.14 0 .29.01.43.02.56.02 1.11.05 1.66.08.12 0 .25.02.38.02 6.07.41 12.1 1.64 17.91 3.56 1.54-1.1 3.08-2.19 4.6-3.27 2.36-1.67 4.69-3.29 7.01-4.88-.59-.31-1.19-.62-1.78-.92-9.99-4.47-20.93-7.2-32.22-7.25l-.03.01ZM317.62 909.6c.44-.91.82-1.83.75-2.19-.11-.11-.91-.72-4.77-.72-.2 0-.44 0-.65.01.49 1.43.91 2.92 1.26 4.45 1.13-.5 2.27-1.02 3.41-1.55ZM309.76 908.33c-.1.25-.21.5-.32.73.23.16.46.33.69.49-.12-.41-.24-.82-.37-1.22ZM274.59 871.21c-1.93 0-3.52.94-4.71 2.79l-3.25-.78c-.66-5.37-10.97-10.58-23-11.61l-1.33-.81c-4.94-7.62-12.61-12.55-19.53-12.55-3.83 0-7.41 1.43-10.62 4.25l-.45.29c-2.25 1-2.64 3.39-2.25 5.29.5 2.49 2.53 5.17 5.81 5.17 2.01 0 5.32-1.01 9.64-5.79l2.93 1.97c-.47 1.08-.83 2.15-1.09 3.19l-1.07 1.24c-7.65 3.11-11.77 8.74-12.24 16.73l-.16.67v.04c6.33-1.56 12.92-2.44 19.71-2.62h.05c.86-.02 1.72-.03 2.58-.03h.05c.86 0 1.72.01 2.58.03h.05c13.25.35 25.7 3.34 37.03 8.9 2.81 1.38 5.66 2.92 8.52 4.58 2.28-4.84 2.19-10.08-.32-14.56-2.14-3.82-5.73-6.39-8.92-6.39h-.01ZM287.45 894.31c2.67 1.63 5.35 3.34 8.07 5.14.67-.89 1.46-1.76 2.38-2.57.35-1.25.75-2.39 1.21-3.43-1.75-.98-3.55-1.5-5.31-1.5-2.24 0-4.37.8-6.35 2.37v-.01ZM245.35 819c13.75-7.09 28.8-10.49 43.72-10.56 14.92.07 29.98 3.47 43.72 10.56 6 3.09 13.79 8.7 22.72 15.31 4.67 3.46 9.7 7.19 14.98 10.98 2.98-2.1 5.93-4.14 8.85-6.11-5.26-3.59-10.36-7.27-15.23-10.87-2.03-1.5-4.03-2.98-5.99-4.44-1.44-1.07-2.85-2.12-4.24-3.15-8.79-6.51-16.41-11.99-22.22-14.99-12.91-6.66-27.63-10.21-42.6-10.28-14.98.07-29.7 3.62-42.6 10.28-5.8 2.99-13.42 8.48-22.21 14.99-1.38 1.02-2.8 2.08-4.24 3.15-1.96 1.46-3.96 2.94-5.99 4.44-4.87 3.6-9.98 7.28-15.24 10.87 2.92 1.97 5.87 4.01 8.85 6.11 5.28-3.79 10.32-7.53 14.99-10.99 8.93-6.61 16.72-12.22 22.72-15.31l.01.01Z"/><path d="M245.35 803.14c13.75-7.1 28.8-10.49 43.72-10.56 14.92.07 29.98 3.47 43.72 10.56 6 3.09 13.79 8.7 22.72 15.31 7.95 5.89 16.95 12.56 26.45 18.98 2.96-1.95 5.88-3.8 8.78-5.54-8.8-5.74-17.59-12.03-26.12-18.13-1.79-1.28-3.58-2.55-5.35-3.8-10.88-7.68-21.51-14.78-31.58-19.71-11.53-5.65-23.86-8.32-36.1-8.65-.11 0-.22 0-.34-.01-.3 0-.59-.01-.89-.01-.33 0-.66-.01-.99-.01h-.6c-.33 0-.66 0-.99.01-.3 0-.59 0-.89.01-.11 0-.23 0-.33.01-12.24.32-24.57 3-36.1 8.65-10.07 4.93-20.7 12.03-31.58 19.71-1.78 1.26-3.56 2.52-5.35 3.8-8.53 6.1-17.33 12.39-26.13 18.13 2.9 1.74 5.82 3.59 8.79 5.54 9.5-6.42 18.5-13.1 26.45-18.99 8.93-6.61 16.72-12.22 22.72-15.31l-.01.01ZM138.57 910.18c-.18 0-.36-.01-.54-.01-.41-.01-.82-.02-1.23-.02h-.2c-.41 0-.82 0-1.23.02-.18 0-.36 0-.54.01-.26 0-.52.02-.78.03-10.88.44-21.59 3.64-31.08 8.71a87.17 87.17 0 0 1 15.87 5.01 72.557 72.557 0 0 1 17.87-2.75c2.42.07 4.84.26 7.25.57 3.43-2.39 6.84-4.81 10.2-7.23.68-.49 1.36-.97 2.04-1.46-5.47-1.63-11.13-2.63-16.84-2.86-.26 0-.52-.02-.78-.03l-.01.01Z"/><path d="M358.13 839.74c-1.44-1.07-2.85-2.12-4.24-3.15-8.79-6.51-16.41-11.99-22.22-14.98-12.91-6.66-27.63-10.21-42.6-10.28-14.98.07-29.7 3.62-42.6 10.28-5.8 2.99-13.42 8.48-22.21 14.98-1.38 1.03-2.8 2.08-4.24 3.15-1.96 1.46-3.96 2.94-5.99 4.44-1.29.95-2.59 1.91-3.91 2.87.55.39 1.1.78 1.64 1.17 3.37-2.39 7.07-3.61 11.01-3.61 1.86 0 3.75.29 5.61.82 1.89-1.26 3.76-2.48 5.63-3.66 3.51-2.36 7.22-4.55 11.08-6.52 12.83-6.55 27.35-10.76 41.96-11.11.63-.02 1.27-.03 1.9-.03H289.19c.64 0 1.27.01 1.91.03 14.61.35 29.13 4.56 41.96 11.11 3.86 1.97 7.57 4.16 11.08 6.52 5.26 3.33 10.61 7 16.08 10.85 2.63-1.89 5.23-3.74 7.81-5.57-1.32-.96-2.62-1.91-3.91-2.86-2.03-1.5-4.03-2.98-5.99-4.44v-.01ZM344.39 772c-.18 0-.35 0-.53-.01-.41 0-.82-.01-1.23-.02h-.2c-.41 0-.82 0-1.23.02-.18 0-.36 0-.54.01l-.78.03c-9.6.39-19.05 2.93-27.67 7 4.77 2.48 9.47 4.61 14.07 6.28a72.713 72.713 0 0 1 16.25-2.31c5.42.15 10.86.92 16.22 2.31 4.6-1.67 9.31-3.81 14.09-6.29-8.61-4.07-18.05-6.61-27.65-7l-.78-.03-.02.01ZM194.03 824.13c-.67-.02-1.34-.04-2.01-.04-.62 0-1.25.01-1.87.03-.62-.02-1.25-.03-1.87-.03-4.33 0-8.68.46-12.95 1.26.35.17.71.33 1.06.5 1.15.56 2.3 1.16 3.46 1.77h9.01a425.8 425.8 0 0 0 5.17-3.49Z"/><path d="M289.07 841.26c-14.15.09-28.07 3.53-40.27 9.97-1.9 1.01-4.02 2.31-6.31 3.83.8.95 1.56 1.95 2.28 3.01 4.12.42 8.27 1.33 12 2.67 9.86-4.7 20.59-7.08 31.97-7.08h.64c11.55 0 22.44 2.45 32.42 7.29.91.44 1.81.89 2.7 1.37 3.76 2.02 7.57 4.38 11.44 6.99 3.39-2.17 6.79-4.43 10.17-6.74-6.54-4.88-12.24-8.93-16.78-11.32-12.2-6.44-26.11-9.88-40.27-9.97l.01-.02ZM300.88 890.27c.19-.26.38-.51.58-.74-.42.12-.85.25-1.27.37.23.12.46.24.69.37Z"/><path d="M327.69 835.67c-.59-.29-1.18-.57-1.78-.84-10.96-4.68-23.03-7.6-35.3-7.83h-.1c-.43 0-.86-.02-1.29-.02h-.3c-.43 0-.86 0-1.3.01h-.09c-12.27.23-24.33 3.15-35.3 7.83-.59.27-1.19.55-1.78.84-6.08 2.98-12.37 6.76-18.8 10.97 3.19 1.44 6.25 3.63 8.98 6.4 2.58-1.74 4.96-3.22 7.1-4.34 12.99-6.86 27.23-10.15 41.33-10.24 14.1.08 28.34 3.37 41.33 10.24 4.89 2.58 11.04 6.97 18.06 12.24 3.14-2.17 6.26-4.38 9.34-6.59-3.43-2.4-6.83-4.75-10.2-6.98-6.82-4.51-13.48-8.55-19.92-11.7l.02.01ZM395.97 685.93c-.63-.02-1.25-.03-1.87-.04-3.44 0-6.89.3-10.31.82 4.17 1.28 8.25 2.13 12.17 2.44h.01c3.93-.32 8.01-1.17 12.2-2.44-3.44-.52-6.9-.8-10.33-.81-.63 0-1.25.02-1.87.04v-.01ZM291.72 871.98c-.26 0-.52-.02-.78-.03-.18 0-.36 0-.54-.01-.41 0-.82-.01-1.23-.02h-.21c-.41 0-.82 0-1.23.02-.18 0-.36 0-.53.01-.26 0-.52.02-.78.03-.84.03-1.67.09-2.5.16 1 1.07 1.9 2.29 2.67 3.65 1.28 2.27 2.04 4.7 2.32 7.18h.17c5.43.15 10.87.92 16.22 2.31 4.6-1.67 9.31-3.81 14.08-6.29-8.61-4.07-18.05-6.61-27.65-7l-.01-.01ZM290.95 885.81c-.63 0-1.25.02-1.87.03h-.05c-.04 1.06-.18 2.12-.4 3.18.15.01.3.03.44.04v.16h.01v-.16l.56-.06c1.35-.47 2.75-.71 4.17-.71.23 0 .45 0 .68.02 2.23-.42 4.5-.99 6.8-1.69a70.7 70.7 0 0 0-10.33-.81h-.01ZM510.84 980.21c.68.66 1.31 1.28 1.72 1.93 4.83 1.39 9.51 3.19 14.02 5.39 4.78 2.34 9.64 5.14 14.58 8.24.35-3.73-.37-7.05-1.59-9.52-1.48-3.01-3.77-4.96-5.81-4.96-1.23 0-2.34.72-3.28 2.14l-3.2-1.43c1.09-4.96-.72-10.93-4.96-16.39-5.26-6.76-13.1-11.13-19.97-11.13-4.83 0-8.99 2.03-12.36 6.04l-.4.35c-2.38 1.53-1.83 4.29-1.6 5.1.64 2.29 2.72 4.76 5.76 4.76 3.04 0 6.48-2.59 9.57-7.3l3.19 1.5c-2.32 8.78 1.69 12.67 4.34 15.26l-.01.02ZM157.41 799.21c9.98-4.83 20.86-7.29 32.42-7.29h.64c11.55 0 22.44 2.46 32.42 7.29.91.44 1.81.89 2.7 1.37.36.19.72.4 1.07.6 3.75-2.53 7.45-4.93 11.1-7.14-2.7-1.84-5.17-3.38-7.36-4.54-12.2-6.45-26.11-9.88-40.26-9.97-14.15.09-28.07 3.52-40.26 9.97-5.39 2.85-12.44 8.02-20.58 14.18-1.45 1.1-2.94 2.24-4.46 3.39-2.43 1.85-4.92 3.74-7.45 5.65-.56.42-1.12.84-1.7 1.27-1.21.91-2.46 1.84-3.74 2.78-.68.5-1.36 1-2.05 1.51-1.31.96-2.63 1.92-3.97 2.88-.04.03-.08.06-.12.08l-.75.54c-.65.46-1.29.92-1.93 1.37 8.45-3.35 17.44-5.35 26.88-5.99.28-.21.55-.42.83-.63 8.21-6.23 16.15-11.8 23.86-15.94.89-.48 1.8-.93 2.7-1.37l.01-.01ZM395.97 638.55c4.79.03 9.58.43 14.35 1.22a59.24 59.24 0 0 1 7.08-1.44c-1.43-1.02-2.58-2.53-3.21-4.37a9.868 9.868 0 0 1-.38-5.02c-5.34-1.1-10.79-1.75-16.29-1.85h-3.08c-12.27.23-24.33 3.15-35.3 7.83-.59.27-1.19.55-1.77.84-6.44 3.15-13.1 7.19-19.92 11.7a445.19 445.19 0 0 0-10.21 6.99c3.09 2.21 6.21 4.41 9.35 6.59 7.02-5.26 13.17-9.66 18.06-12.25 12.99-6.86 27.22-10.15 41.33-10.23l-.01-.01ZM387.45 657.07c-8.27 1.01-16.25 3.37-23.71 6.71-.76.37-1.52.76-2.27 1.16-3.24 1.74-6.56 3.77-9.92 6 3.7 2.31 7.39 4.49 11.05 6.5 7.7-3.93 16.07-6.62 24.6-7.73-1.19-4.54-1.11-8.77.25-12.64ZM199.88 657.32c13.74-7.09 28.81-10.49 43.72-10.56 14.92.07 29.98 3.47 43.73 10.56 6 3.09 13.79 8.71 22.72 15.32 3.62 2.68 7.46 5.53 11.46 8.44 4.71-1.08 9.55-1.79 14.51-2.12-6.01-4.05-11.85-8.24-17.37-12.32-2.03-1.5-4.02-2.98-5.99-4.44-1.44-1.07-2.85-2.11-4.23-3.14-8.8-6.51-16.41-11.99-22.22-14.99-12.9-6.66-27.63-10.21-42.6-10.29-14.98.07-29.7 3.62-42.6 10.29-5.8 2.99-13.42 8.47-22.22 14.99-1.38 1.03-2.79 2.08-4.23 3.14-1.96 1.46-3.96 2.94-5.99 4.44-15.01 11.09-32.27 22.96-49.34 30.69 1.24-.25 2.52-.39 3.83-.39 4.36 0 8.98 1.43 13.16 3.94 14.78-8.82 29.04-19.43 40.95-28.24 8.93-6.61 16.72-12.22 22.72-15.32h-.01Z"/><path d="M351.99 635.34c12.83-6.56 27.35-10.76 41.96-11.12.63-.01 1.27-.03 1.9-.03h.24c.64 0 1.27.02 1.91.03 5.59.14 11.18.84 16.66 2.02.83-1.84 2.15-3.6 3.94-5.19.68-2.45 1.57-4.49 2.66-6.13a95.99 95.99 0 0 0-25.28-3.51c-14.98.07-29.7 3.63-42.6 10.28-5.8 2.99-13.42 8.48-22.22 14.99-1.38 1.03-2.79 2.07-4.23 3.14-1.96 1.46-3.96 2.94-5.99 4.44-1.29.95-2.59 1.91-3.91 2.87 2.58 1.83 5.18 3.69 7.81 5.58 5.47-3.85 10.83-7.53 16.09-10.85 3.51-2.36 7.22-4.55 11.08-6.52h-.02ZM388.08 672.51c-7.78.94-15.38 3.23-22.42 6.56 4.77 2.48 9.47 4.61 14.07 6.28a72.713 72.713 0 0 1 16.25-2.31c5.42.15 10.86.92 16.22 2.31 3.55-1.29 7.16-2.85 10.81-4.64.56-.93.93-1.73 1.19-2.6-6.04-2.64-12.45-4.52-19.01-5.45-.04 2.24-.54 4.07-1.52 5.47-1.27 1.81-3.3 2.8-5.72 2.8-3.77 0-8.32-2.53-8.77-5.75-.42-.91-.78-1.8-1.1-2.69v.02ZM451.19 971.73c1.28 4.42 3.67 8.22 6.47 11.52 7.48-2.51 15.35-4 23.55-4.48-.44-1.34-1.28-2.79-2.52-4.3-5.58-6.77-19.15-14.08-31.33-14.08-6.57 0-15.19 2.17-18.88 12.52l-.34.59c-.64.73-.61 3.09.56 5.77 1.19 2.73 3.72 5.91 6.94 5.91 3.99 0 8.34-4.86 12.23-13.68l3.32.23ZM148.82 786.97c12.99-6.86 27.23-10.16 41.33-10.24 14.1.08 28.34 3.37 41.33 10.24 2.61 1.38 5.59 3.28 8.86 5.55 3.05-1.78 6.06-3.43 9.05-4.89.44-.21.87-.42 1.31-.62-.67-.45-1.35-.91-2.03-1.36-6.82-4.51-13.48-8.55-19.91-11.7-.59-.29-1.19-.57-1.78-.84-10.96-4.68-23.03-7.6-35.3-7.83h-.1c-.43-.01-.86-.01-1.29-.02h-.3c-.43 0-.86 0-1.29.01h-.1c-12.27.23-24.33 3.15-35.29 7.83-.6.27-1.19.55-1.78.84-6.44 3.15-13.11 7.19-19.92 11.7-4.89 3.23-9.86 6.71-14.88 10.29-12.76 9.08-25.81 18.74-38.65 26.46l-.21.69c2.22 1.53 4.45 3.05 6.69 4.54h7.01c12.75-8.18 26.03-18.47 36.48-26.37 8.14-6.16 15.25-11.37 20.77-14.28ZM414.14 1008.26c-.86-.12-1.7-.19-2.52-.19-2.87 0-5.14.76-6.39 2.14-.84.92-1.22 2.15-1.12 3.65l-2.62 1.73c-2.47-1.37-5.08-2.1-7.54-2.1-2.95 0-5.44 1.05-6.82 2.88-1.21 1.6-1.51 3.75-.88 6.21l-.4 1.69c-1.61 1.82-2.63 3.82-3.05 5.82 7.62-4.92 15.22-10.29 22.64-15.6 2.94-2.11 5.84-4.18 8.71-6.22l-.01-.01ZM374.22 1025.76c1.15.56 2.3 1.16 3.46 1.77h2.12c.4-1.14.94-2.27 1.63-3.35-2.77.2-5.54.56-8.27 1.08.35.17.71.33 1.06.5ZM384.32 1014.14c1.5-2 3.79-3.37 6.5-3.97-.06 0-.12 0-.19-.01-.26 0-.52-.02-.78-.03-.18 0-.36-.01-.54-.02-.41 0-.82-.02-1.23-.02h-.21c-.41 0-.82 0-1.23.02-.18 0-.35 0-.53.02-.26 0-.52.02-.78.03-10.88.44-21.58 3.64-31.08 8.71a86.425 86.425 0 0 1 15.87 5.02 72.25 72.25 0 0 1 12.34-2.38c-.37-3.45.74-5.87 1.86-7.37Z"/><path d="M383.87 1007.35c.55-.04 1.1-.06 1.66-.08.14 0 .29-.01.43-.02.66-.02 1.33-.03 2-.03h.05c.66 0 1.33.01 1.99.03.14 0 .29.01.43.02.56.02 1.11.05 1.66.08.12 0 .25.02.38.02 3.16.21 6.31.66 9.43 1.3.22-.33.46-.66.73-.96 1.93-2.13 5.12-3.29 8.99-3.29 2.08 0 4.31.35 6.55 1 1.28-.89 2.55-1.77 3.82-2.64-.59-.31-1.18-.62-1.78-.91-9.99-4.48-20.93-7.2-32.23-7.25-11.29.05-22.24 2.77-32.23 7.25-.76.37-1.51.76-2.27 1.16-6.74 3.62-13.78 8.46-20.97 13.82.67-.01 1.33-.03 1.99-.03h.05c.86 0 1.72.01 2.58.03h.05c4.37.12 8.65.53 12.83 1.21.97-.57 1.94-1.14 2.93-1.67 9.42-5.1 19.93-8.32 30.55-9.03.12 0 .25-.02.37-.02l.01.01ZM454.09 984.53c-1.85-2.33-3.53-4.89-4.81-7.72-1.02 1.95-2.06 3.66-3.13 5.14 1.79 1.17 3.59 2.37 5.4 3.6.84-.35 1.69-.69 2.54-1.02ZM441.43 876.69c14.1.08 28.33 3.37 41.33 10.23 2.61 1.38 5.58 3.28 8.85 5.55 3.04-1.78 6.06-3.43 9.05-4.89.44-.22.88-.42 1.32-.63l-2.02-1.36c-.71-.47-1.42-.93-2.13-1.39-2.78 3.1-5.7 4.67-8.75 4.67-4.92 0-8.48-4.17-10.19-8.07-1.06-2.42-1.69-5.49-.93-7.87-10.88-4.6-22.84-7.48-34.99-7.7h-.1c-.43-.01-.86-.01-1.29-.02h-.3c-.43 0-.86 0-1.29.01h-.1c-12.27.23-24.33 3.15-35.3 7.83-.59.28-1.19.55-1.77.84-6.44 3.16-13.1 7.19-19.92 11.7a424.3 424.3 0 0 0-6.56 4.45c2.31 3.64 3.53 7.25 3.62 10.68 7.88-5.95 14.77-10.96 20.14-13.8 12.99-6.86 27.23-10.15 41.33-10.23ZM180.56 941.73c3.51-2.36 7.22-4.55 11.08-6.52 12.83-6.56 27.35-10.76 41.96-11.12.63-.01 1.27-.02 1.9-.02h.24c.64 0 1.27.01 1.9.02 10.35.25 20.65 2.45 30.34 6.03.18-.34.37-.68.58-1.01 1.99-3.25 4.93-5.96 8.4-8.16-12.6-6.25-26.85-9.58-41.34-9.66-14.98.07-29.7 3.62-42.6 10.28-5.8 2.99-13.42 8.48-22.22 14.99-1.38 1.02-2.79 2.07-4.23 3.14-1.96 1.46-3.96 2.94-5.99 4.44-1.29.95-2.59 1.91-3.91 2.87 2.58 1.83 5.18 3.69 7.81 5.58 5.47-3.86 10.82-7.53 16.08-10.86ZM136.7 924.07c-.63-.02-1.25-.03-1.87-.03-4.33 0-8.68.46-12.96 1.26.36.17.71.33 1.07.51 1.15.56 2.3 1.16 3.46 1.77h9.01a425.8 425.8 0 0 0 5.17-3.49c-.67-.02-1.34-.05-2.01-.05-.62 0-1.25.01-1.87.03Z"/><path d="M408.69 899.16c9.98-4.83 20.86-7.29 32.42-7.29h.64c11.56 0 22.44 2.46 32.42 7.29.91.44 1.81.89 2.7 1.37.35.19.71.4 1.07.59 2.05-1.38 4.09-2.73 6.11-4.03 1.24-1.14 2.66-2.03 4.22-2.65.26-.16.51-.32.77-.47-2.69-1.83-5.16-3.37-7.35-4.53-12.2-6.44-26.11-9.88-40.26-9.96-14.16.08-28.07 3.52-40.27 9.96-4.6 2.43-10.41 6.55-17.07 11.54 2.7.8 5.16 3.24 6.71 6.77.26.58.48 1.21.69 1.86 4.92-3.45 9.74-6.54 14.49-9.08.89-.48 1.8-.93 2.7-1.37h.01ZM103.96 899.16c9.98-4.83 20.86-7.29 32.42-7.29h.64c6.6 0 12.98.81 19.1 2.39-.28-.55-.52-1.13-.72-1.76-.89-2.86-.79-6.83 1.46-10.58a88.828 88.828 0 0 0-20.16-2.44c-14.16.08-28.07 3.52-40.27 9.96-5.39 2.85-12.44 8.03-20.58 14.19-1.45 1.1-2.94 2.24-4.46 3.39-2.43 1.85-4.91 3.74-7.45 5.65-.56.42-1.12.84-1.7 1.27-1.21.91-2.47 1.84-3.75 2.79-.66.49-1.31.97-1.97 1.45-1.33.98-2.67 1.95-4.03 2.92-.04.03-.08.05-.12.09l-.75.54c-.65.46-1.29.92-1.94 1.38 8.45-3.35 17.45-5.35 26.88-5.99.28-.21.55-.43.83-.63 8.21-6.23 16.15-11.8 23.86-15.94.89-.48 1.8-.93 2.7-1.37l.01-.02ZM186.04 807.45c.55-.03 1.11-.06 1.66-.08.14 0 .29-.01.43-.02.67-.02 1.33-.03 2-.03h.04c.67 0 1.33.01 2 .03.14 0 .28 0 .43.02.56.02 1.11.05 1.66.08.12 0 .25.02.37.02 6.07.4 12.1 1.63 17.91 3.56 1.54-1.1 3.08-2.19 4.6-3.27 2.36-1.67 4.69-3.29 7.01-4.88-.59-.31-1.19-.62-1.78-.91-9.98-4.48-20.93-7.2-32.22-7.25-11.29.05-22.24 2.77-32.22 7.25-.76.37-1.52.76-2.27 1.16-6.75 3.62-13.78 8.46-20.97 13.82.66-.01 1.33-.03 1.99-.03h.05c.86 0 1.72.02 2.58.04h.05c4.37.12 8.65.53 12.83 1.21.97-.58 1.94-1.14 2.93-1.67 9.42-5.1 19.93-8.31 30.55-9.03.13 0 .25-.02.37-.02ZM397.45 873.48c12.83-6.56 27.35-10.76 41.96-11.12.63-.02 1.27-.03 1.9-.03h.24c.63 0 1.27.01 1.9.03 12.25.3 24.44 3.31 35.61 8.14 1.64-3.97 4.09-7.14 7.23-9.43-.78-.45-1.54-.86-2.26-1.24-12.9-6.66-27.63-10.21-42.6-10.28-14.98.07-29.7 3.62-42.6 10.28-5.8 2.99-13.42 8.48-22.22 14.99-1.38 1.02-2.8 2.07-4.23 3.14-1.36 1.01-2.75 2.04-4.14 3.07 2.43 2 4.64 4.26 6.5 6.71 3.93-2.72 7.81-5.33 11.63-7.74 3.51-2.36 7.22-4.55 11.08-6.52ZM83.25 1024.02c-.62-.02-1.25-.03-1.87-.03-4.33 0-8.68.46-12.95 1.26.35.17.71.33 1.06.5 1.15.56 2.3 1.16 3.46 1.77h9.01c1.73-1.15 3.45-2.32 5.17-3.49-.67-.02-1.34-.04-2.01-.04-.62 0-1.25.01-1.87.03ZM467.59 908.31c-.86-.12-1.7-.19-2.52-.19-2.87 0-5.14.76-6.39 2.13-.84.93-1.22 2.15-1.12 3.65l-2.62 1.73c-2.47-1.38-5.07-2.1-7.54-2.1-2.96 0-5.44 1.05-6.82 2.88-1.21 1.6-1.51 3.75-.89 6.21l-.4 1.69c-1.61 1.82-2.64 3.82-3.06 5.82 7.61-4.92 15.22-10.29 22.63-15.6 2.94-2.11 5.84-4.18 8.71-6.22h.02ZM484.28 963.17c.09-.61.25-1.19.46-1.74-.48.35-.96.71-1.44 1.07.33.22.65.45.98.67ZM499.17 972.8c1.3.78 2.59 1.55 3.88 2.29-.45-1.37-.76-2.91-.8-4.67-1.07 1.02-2.1 1.79-3.08 2.38ZM427.67 925.81c1.15.56 2.3 1.16 3.46 1.77h2.12c.4-1.14.94-2.26 1.63-3.35-2.77.2-5.54.56-8.27 1.08.35.17.71.33 1.06.51v-.01Z"/><path d="M437.32 907.4c.55-.04 1.1-.06 1.66-.08.14 0 .28-.01.43-.02.67-.02 1.33-.03 2-.03h.04c.67 0 1.33.01 2 .03.14 0 .28.01.43.02.56.02 1.11.05 1.66.08.13 0 .25.02.38.02 3.16.21 6.31.66 9.43 1.3.22-.33.46-.66.73-.96 1.93-2.13 5.13-3.3 8.99-3.3 2.08 0 4.31.35 6.55 1 1.28-.89 2.55-1.77 3.81-2.64-.59-.31-1.18-.62-1.78-.91-9.99-4.47-20.93-7.2-32.22-7.25-11.3.05-22.24 2.78-32.23 7.25-.76.37-1.52.76-2.27 1.16-4.79 2.57-9.73 5.76-14.77 9.31.24 1.44.35 2.98.28 4.59 3.74.17 7.41.55 11.01 1.14.97-.58 1.94-1.14 2.94-1.67 9.42-5.1 19.93-8.32 30.55-9.03.12 0 .25-.02.38-.02v.01Z"/><path d="M437.77 914.18c1.5-2 3.79-3.37 6.5-3.96-.06 0-.12 0-.18-.01-.26 0-.52-.02-.78-.03-.18 0-.36-.01-.54-.01-.41-.01-.82-.02-1.23-.02h-.2c-.41 0-.82 0-1.23.02-.18 0-.35 0-.54.01-.26 0-.52.02-.78.03-10.88.44-21.59 3.64-31.09 8.71a87.17 87.17 0 0 1 15.87 5.01 72.25 72.25 0 0 1 12.34-2.38c-.37-3.45.74-5.87 1.86-7.37ZM363.23 661.02c7.99-3.87 16.57-6.21 25.61-6.99.14-.25.27-.5.42-.75 3.17-5.17 8.7-8.96 14.99-11.5-2.74-.27-5.51-.42-8.28-.44-14.16.09-28.07 3.53-40.27 9.97-4.53 2.4-10.25 6.44-16.79 11.33 3.38 2.31 6.77 4.57 10.17 6.74 3.87-2.61 7.68-4.97 11.44-6.99.89-.48 1.8-.93 2.7-1.37h.01ZM502.35 950.84c5.36 0 11.03 2.15 15.99 5.87 6.9-2.06 14.14-3.12 21.68-3.12h.73l-3.91-12.29c-12.76.58-25.21 3.87-36.28 9.63.59-.05 1.19-.09 1.79-.09ZM542.21 971.91c-.18 0-.36-.01-.54-.01-.41-.01-.82-.02-1.23-.02h-.21c-.41 0-.82 0-1.23.02-.18 0-.36 0-.53.01-.26 0-.52.02-.78.03-2.54.1-5.07.37-7.58.76.58 1.86.92 3.71 1.01 5.51.84-.37 1.72-.56 2.64-.56 2.97 0 5.95 2.01 8.07 5.34 2.86.14 5.72.47 8.57.94l-3.74-11.74c-1.22-.12-2.45-.21-3.67-.25-.26 0-.52-.02-.78-.03ZM521.11 959.02c1.42 1.31 2.76 2.76 3.98 4.33 1.66 2.14 2.98 4.36 3.97 6.61a70.6 70.6 0 0 1 6.79-.8c.13 0 .25-.02.38-.02.55-.04 1.1-.06 1.66-.08.14 0 .28-.01.43-.01.67-.02 1.33-.04 2-.04h.05c.66 0 1.33.01 2 .04.14 0 .29.01.43.01.56.02 1.11.05 1.66.08.12 0 .25.02.37.02.3.02.6.06.9.09l-4.08-12.81c-.44 0-.87-.02-1.31-.02-6.57.03-13.02.97-19.23 2.62v-.02Z"/><path d="M501.73 935.62c-6.44 3.15-13.1 7.19-19.92 11.7-3.37 2.23-6.77 4.57-10.2 6.98 3.09 2.21 6.21 4.41 9.35 6.59 7.01-5.27 13.16-9.66 18.05-12.24 11.65-6.15 24.29-9.43 36.95-10.1l-3.57-11.23c-10.04.94-19.84 3.6-28.88 7.46-.59.28-1.19.55-1.78.84ZM544.47 997.89c1.53 1 3.07 2.01 4.62 3.05 2.04-.5 4.09-1.1 6.17-1.77l-3.03-9.53c-2.56.74-5.08 1.34-7.56 1.74.23 2.03.2 4.21-.19 6.51h-.01ZM557.71 1006.9l-1.57-4.93c-1.29.42-2.57.81-3.85 1.16 1.79 1.23 3.6 2.5 5.42 3.77ZM573.39 1056.17l-2.89-9.07c-.48.34-.96.67-1.44 1.01-1.78 1.26-3.56 2.53-5.35 3.8-14.41 10.3-29.55 21.15-44.25 28.96h18.85c12.45-7.91 24.34-16.74 34.51-24.27l.57-.42v-.01ZM544.16 988.55c2.35-.38 4.76-.94 7.2-1.64l-.17-.53c-2.64-.34-5.29-.56-7.92-.6.35.86.65 1.78.89 2.76v.01Z"/><path d="M475.52 936.55c-1.38 1.02-2.8 2.07-4.24 3.14-1.96 1.46-3.96 2.94-5.99 4.44-1.29.95-2.59 1.91-3.91 2.87 2.58 1.83 5.18 3.69 7.81 5.58 5.46-3.85 10.82-7.52 16.08-10.85 3.51-2.36 7.22-4.55 11.08-6.52 10.83-5.54 22.87-9.39 35.15-10.67l-3.93-12.34c-10.49 1.45-20.63 4.61-29.84 9.36-5.8 2.99-13.42 8.48-22.21 14.99ZM481.93 872.95l-.34.59c-.64.74-.61 3.1.55 5.77 1.19 2.73 3.72 5.91 6.94 5.91 3.99 0 8.34-4.86 12.23-13.68l3.32.23c1.28 4.42 3.67 8.23 6.47 11.52a89.08 89.08 0 0 1 6.66-1.93l-6.12-19.23c-3.58-1.06-7.27-1.7-10.84-1.7-6.57 0-15.19 2.17-18.88 12.52h.01Z"/><path d="M475.52 920.69c-1.38 1.02-2.8 2.07-4.24 3.15-1.96 1.45-3.96 2.94-5.99 4.44-4.87 3.6-9.98 7.27-15.23 10.87 2.92 1.96 5.87 4 8.85 6.11 5.28-3.79 10.31-7.53 14.98-10.98 8.93-6.61 16.72-12.22 22.72-15.31 9.55-4.93 19.74-8.07 30.07-9.55l-3.91-12.28c-8.78 1.67-17.25 4.55-25.05 8.58-5.8 2.99-13.42 8.47-22.21 14.98l.01-.01ZM73.53 1041.28c6 3.09 13.79 8.7 22.72 15.32 4.77 3.53 9.93 7.36 15.34 11.24 2.82-1.56 5.84-2.37 9.02-2.37 1.66 0 3.33.23 4.99.66-6.83-4.62-13.61-9.47-20.24-14.21-1.79-1.28-3.57-2.55-5.35-3.8-10.88-7.68-21.51-14.78-31.58-19.71-11.53-5.65-23.86-8.33-36.1-8.65h-.34c-.3 0-.59-.01-.89-.02h-2.58c-.3 0-.59.01-.89.02h-.34c-3.62.1-7.24.4-10.85.93l-3.6 11.59a98.982 98.982 0 0 1 16.97-1.54c14.92.07 29.98 3.47 43.72 10.56v-.02ZM500.91 837.44c.8-.54 1.58-1.08 2.37-1.62l-2.99-9.4c-2.72 1.86-5.44 3.7-8.17 5.48 2.9 1.74 5.83 3.59 8.79 5.54ZM434.04 803.68c-1.46 1.1-2.95 2.24-4.46 3.39-2.43 1.85-4.91 3.74-7.45 5.65-.56.42-1.12.84-1.7 1.27-1.22.92-2.49 1.86-3.78 2.81-.66.49-1.32.98-1.99 1.47-1.31.96-2.64 1.93-3.98 2.89-.04.03-.08.06-.12.08l-.75.54c-.64.46-1.29.92-1.93 1.37 8.45-3.35 17.45-5.35 26.88-5.99.28-.21.55-.42.83-.63 8.21-6.23 16.14-11.8 23.86-15.94.89-.48 1.8-.93 2.7-1.37 8.47-4.1 17.6-6.48 27.23-7.11l-3.82-12.01c-10.89 1.21-21.43 4.39-30.93 9.41-5.4 2.85-12.44 8.02-20.58 14.18l-.01-.01ZM494.78 810.2c-.41 0-.82 0-1.23.02h-.53l-.78.03c-10.88.44-21.58 3.64-31.08 8.71a87.17 87.17 0 0 1 15.87 5.01 72.081 72.081 0 0 1 17.86-2.75c1.28.03 2.55.11 3.82.21l-3.58-11.24h-.36l.01.01ZM504.58 839.92l-.38-1.2c-.23.16-.45.32-.68.47.35.24.71.49 1.07.73h-.01Z"/><path d="M470.15 909.92c-1.78 1.25-3.56 2.52-5.35 3.8-8.53 6.1-17.32 12.39-26.12 18.13 2.9 1.74 5.82 3.59 8.78 5.54 9.5-6.41 18.5-13.1 26.45-18.98 8.93-6.61 16.72-12.22 22.72-15.31 8.07-4.17 16.6-7.05 25.29-8.74l-3.26-10.25a83.631 83.631 0 0 0-16.91 6.11c-10.07 4.93-20.7 12.03-31.58 19.71l-.02-.01ZM564.39 1030.21c.26 0 .5.02.75.04l-2.45-7.7c-.45.11-.89.25-1.33.4 1.33 2.28 2.34 4.72 2.92 7.26h.11ZM443.95 819.84h-.33c-.3 0-.6-.01-.89-.02h-2.58c-.3 0-.59.01-.89.02h-.34c-12.23.32-24.57 3-36.1 8.65-10.07 4.93-20.7 12.03-31.58 19.71-1.78 1.25-3.56 2.53-5.35 3.8-17.81 12.73-36.75 26.31-54.59 33.94 3.87.52 7.94 2.59 11.77 5.12 4.74-2.45 9.47-5.17 14.14-8.05-.83-1.91-.56-3.94.79-5.74 2.29-3.05 5.8-4.66 10.16-4.66 1.35 0 2.76.17 4.2.46 8.09-5.6 15.75-11.28 22.63-16.38 8.93-6.61 16.72-12.22 22.72-15.32 13.75-7.09 28.81-10.49 43.73-10.56 14.92.07 29.98 3.47 43.72 10.56 6 3.1 13.79 8.7 22.72 15.32.48.36.97.72 1.46 1.08.34.07.67.16 1 .24l-4.38-13.76c-8.9-6.13-17.61-11.69-25.92-15.76-11.53-5.65-23.86-8.33-36.1-8.65h.01ZM460.39 803.13c-6.74 3.62-13.78 8.46-20.98 13.82.67-.01 1.33-.03 2-.03h.04c.86 0 1.72.02 2.58.04h.05c4.37.12 8.65.53 12.83 1.21.97-.58 1.94-1.14 2.93-1.67 9.42-5.1 19.93-8.31 30.55-9.03.12 0 .25-.02.37-.02.55-.03 1.1-.06 1.66-.08.14 0 .28-.01.43-.02.45-.01.9-.02 1.35-.02l-3.96-12.43c-9.65.66-18.98 3.21-27.6 7.08-.76.37-1.51.76-2.27 1.16l.02-.01ZM182.13 624.73c-3.55-2.47-7.08-4.97-10.57-7.46-1.18.41-2.25.57-3.17.57-.26 0-.52-.02-.78-.03.55.55 1.07 1.16 1.54 1.86 1.73 2.57 2.71 5.84 2.95 9.45 1.96 1.41 3.96 2.83 5.99 4.25-.09-3.48 1.41-6.49 4.31-8.43-.09-.07-.17-.14-.24-.21h-.03ZM184.82 1071.89l-.78-.03c-.18 0-.36 0-.54-.01-.41 0-.82-.01-1.23-.01h-.2c-.41 0-.82 0-1.23.01-.18 0-.36.01-.53.01-.26 0-.52.02-.78.03-9.6.38-19.05 2.93-27.67 7 1.33.69 2.65 1.35 3.96 1.98h52.69c1.31-.63 2.63-1.29 3.96-1.98-8.61-4.07-18.05-6.61-27.65-7ZM563.05 1033.94l-1.94-1.51c-.89-5.43-3.89-10.47-8.44-14.2-3.9-3.18-8.75-5.17-12.66-5.17-2.56 0-5.68.81-6.04 4.66l-2.86 1.27c-2.83-2.25-6.03-3.49-9.02-3.49-2.35 0-4.33.79-5.6 2.21-1.21 1.36-1.74 3.32-1.53 5.64l-.67 1.6c-4.62 3.76-5.17 8.34-4.14 11.38.7 2.08 2.13 3.47 3.56 3.47 1.9 0 3.8-2.45 5.06-6.56l1.59-1.27c1.4-.09 2.75-.13 4.03-.13 9.74 0 16 2.47 18.6 7.34 2.57 4.81 1.3 11.38-3.78 19.55-2.39 3.8-3.61 6.95-3.66 9.32 7.48-4.85 14.96-10.12 22.24-15.34 3.22-2.31 6.4-4.59 9.54-6.81.76-.54 1.52-1.07 2.28-1.6l-3.26-10.24c-1.04-.2-2.14-.25-3.3-.12ZM120.6 1069.11c-3.83 0-7.41 1.43-10.62 4.25l-.45.29c-2.25 1-2.64 3.39-2.25 5.29.13.65.36 1.31.7 1.93h12.16c.82-.7 1.68-1.54 2.6-2.55l2.93 1.97c-.08.19-.15.38-.22.57h14.15c-4.95-7.17-12.31-11.75-18.99-11.75h-.01Z"/><path d="m202.56 624.72-3.2-1.43c.8-3.77-.62-8.33-3.9-12.52-4.75-6.06-12.37-10.13-18.98-10.13-4.58 0-8.47 1.81-11.55 5.37l-.4.35c-1.78 1.12-1.61 2.87-1.35 3.82.55 1.99 2.5 4.01 5.18 4.01 2.84 0 5.92-2.26 8.69-6.36l3.18 1.51c-1.91 7.33 1.75 10.5 4.18 12.6 1.26 1.09 2.35 2.03 2.19 3.51-.07.61-.39 1.48-1.6 2.13-3.83 2.04-3.64 5.56-3.18 7.47.25 1.06.71 2.13 1.33 3.12 7.08-4.71 13.99-8.91 20.74-12.22 1.43-.7 2.88-1.36 4.35-1.98-.9-.68-1.85-1.08-2.75-1.08-1.14 0-2.13.61-2.95 1.83h.02ZM252.37 1009.87c-10.88-7.68-21.52-14.78-31.58-19.71-11.53-5.65-23.86-8.32-36.1-8.65h-.34c-.3 0-.59-.02-.89-.02-.33 0-.66 0-.99-.01h-.6c-.33 0-.66 0-.99.01-.3 0-.59.01-.89.02h-.33c-12.24.32-24.57 3-36.1 8.65-10.07 4.93-20.7 12.03-31.58 19.71-1.78 1.26-3.56 2.53-5.35 3.8-8.53 6.1-17.33 12.39-26.13 18.13 2.9 1.74 5.83 3.59 8.79 5.54 9.5-6.41 18.5-13.1 26.45-18.99 8.93-6.61 16.72-12.22 22.72-15.31 13.75-7.09 28.81-10.49 43.72-10.56 14.92.07 29.98 3.47 43.72 10.56 6 3.1 13.79 8.7 22.72 15.31 4.33 3.2 8.97 6.65 13.83 10.15l1.89-10.11c-2.22-1.58-4.43-3.16-6.62-4.72-1.79-1.28-3.57-2.55-5.35-3.8Z"/><path d="M251.23 1023.79c-1.44-1.07-2.85-2.12-4.24-3.14-8.79-6.51-16.41-11.99-22.22-14.99-12.9-6.66-27.63-10.21-42.6-10.28-14.98.07-29.7 3.63-42.6 10.28-5.8 2.99-13.42 8.48-22.22 14.99-1.38 1.02-2.79 2.07-4.23 3.14-1.96 1.46-3.96 2.94-5.99 4.44-4.87 3.6-9.98 7.28-15.24 10.87 2.92 1.97 5.87 4.01 8.85 6.11 5.28-3.79 10.32-7.53 14.99-10.98 8.93-6.61 16.72-12.22 22.72-15.32 13.75-7.09 28.81-10.49 43.72-10.56 14.92.07 29.98 3.47 43.72 10.56 6 3.09 13.79 8.7 22.72 15.32 3.55 2.63 7.31 5.41 11.23 8.26l2.03-10.86c-1.57-1.14-3.13-2.27-4.65-3.4-2.03-1.5-4.03-2.98-5.99-4.44Z"/><path d="M251.23 1039.65c-1.44-1.07-2.85-2.12-4.24-3.15-8.79-6.51-16.41-11.99-22.22-14.99-12.9-6.66-27.63-10.21-42.6-10.28-14.98.08-29.7 3.63-42.6 10.28-5.8 3-13.42 8.48-22.22 14.99-1.38 1.03-2.79 2.08-4.23 3.15-1.96 1.46-3.96 2.94-5.99 4.44-1.29.95-2.59 1.91-3.91 2.87 2.58 1.83 5.18 3.69 7.81 5.58 5.47-3.86 10.82-7.53 16.08-10.85 3.51-2.36 7.22-4.54 11.09-6.52 12.83-6.55 27.35-10.76 41.96-11.12l1.9-.03H182.3c.64 0 1.27.01 1.9.03 14.6.35 29.13 4.56 41.96 11.12 3.86 1.98 7.57 4.16 11.08 6.52 5.26 3.33 10.61 7 16.08 10.85 1.81-1.3 3.58-2.56 5.37-3.83l.58-3.11c-.68-.5-1.37-1-2.05-1.5-2.03-1.5-4.03-2.98-5.99-4.44v-.01ZM132.13 665.53c1.4.85 2.8 1.75 4.21 2.67.02-1.09.21-2.26.56-3.51-.79.11-1.73.28-2.77.48-.63.12-1.3.24-2 .37v-.01ZM162.7 618.94c2.85 3.27 4.86 7.09 5.85 11.17-.14-3.65-1.12-6.55-2.34-8.37-.73-1.09-1.89-2.32-3.51-2.79v-.01ZM570.2 1077.88c-1.32.98-2.68 1.99-4.03 2.99h3.35c6.39 0 9.21-2.68 8.49-8.76-1.17.86-2.36 1.74-3.58 2.64-1.38 1.02-2.8 2.07-4.24 3.14l.01-.01ZM233.58 1080.86c7.6-4.82 14.98-9.99 21.9-15l2.47-13.21c-14.1 10.07-28.86 20.59-43.21 28.21h18.85-.01ZM73.53 1057.14c6 3.1 13.79 8.7 22.72 15.32 2.36 1.75 4.82 3.57 7.36 5.44-.09-3.3 1.46-6.12 4.26-7.48.37-.32.76-.61 1.14-.91-1.4-1.02-2.79-2.04-4.16-3.05-2.03-1.5-4.03-2.98-5.99-4.44-1.44-1.07-2.85-2.12-4.23-3.15-8.8-6.51-16.42-11.99-22.22-14.99-12.9-6.66-27.63-10.21-42.6-10.28-6.06.03-12.07.64-17.94 1.78l-4.3 13.83c7.33-1.73 14.8-2.6 22.24-2.63 14.92.07 29.98 3.47 43.72 10.56ZM242.86 1080.86c5.1 0 10.21-3.83 11.49-8.95l.37-1.97c-5.06 3.67-10.33 7.36-15.74 10.92h3.88ZM14.17 1080.86h31.22a89.01 89.01 0 0 0-15.59-1.47c-5.27.03-10.51.53-15.63 1.47ZM572.81 1072.45c1.58-1.17 3.11-2.3 4.61-3.4-.08-.32-.16-.64-.25-.97l-2.89-9.1c-1.34.99-2.69 2-4.08 3.03-1.96 1.45-3.96 2.94-5.99 4.44-6.48 4.79-13.39 9.72-20.51 14.41h17.68c3.99-2.9 7.83-5.74 11.44-8.41h-.01Z"/><path d="M66.64 1072.97c-10.96-4.68-23.03-7.61-35.29-7.83h-.1c-.43 0-.86-.01-1.29-.02h-.3c-.43 0-.86 0-1.29.01h-.1c-9.37.17-18.62 1.92-27.35 4.82-.48 1.48-.49 2.66-.49 4.51 0 2.79 1.36 4.9 4.08 5.85a91.22 91.22 0 0 1 25.31-3.73c9.09.05 18.24 1.45 27.07 4.27h24.19c-4.3-2.64-8.53-5.03-12.66-7.06-.59-.29-1.18-.57-1.78-.84v.02ZM137.88 636.75c1.91 1.05 3.79 2.14 5.61 3.29-1.19-1.45-3.08-2.56-5.61-3.29Z"/><path d="M94.62 1074.74c-8.8-6.51-16.42-11.99-22.22-14.99-12.9-6.66-27.63-10.21-42.6-10.28-7.9.04-15.72 1.05-23.24 2.97l-4.43 14.26c8.29-2.62 16.96-4.21 25.65-4.42l1.91-.03h.24c.63 0 1.27.01 1.9.03 14.61.35 29.13 4.56 41.96 11.12 3.86 1.98 7.57 4.16 11.08 6.52.5.31.99.64 1.49.96h16.53c-1.35-1-2.71-2.01-4.03-2.99-1.44-1.07-2.85-2.12-4.23-3.14l-.01-.01ZM525.51 990.16c-11.53-5.65-23.86-8.32-36.1-8.65h-.34c-.3 0-.59-.02-.89-.02-.33 0-.66 0-.99-.01h-.59c-.33 0-.66 0-.99.01-.3 0-.59.01-.89.02h-.34c-12.23.32-24.57 3-36.1 8.65-10.07 4.93-20.7 12.03-31.58 19.71-1.78 1.26-3.56 2.53-5.35 3.8-8.53 6.1-17.32 12.39-26.13 18.13 2.9 1.74 5.83 3.59 8.79 5.54 9.5-6.42 18.49-13.1 26.44-18.98 8.93-6.61 16.72-12.22 22.72-15.31 13.74-7.09 28.81-10.49 43.72-10.56 14.92.07 29.98 3.47 43.72 10.56 3.03 1.56 6.52 3.77 10.38 6.42 4.52.28 9.62 2.43 13.88 5.91a28.24 28.24 0 0 1 4.33 4.42c.78-.29 1.58-.52 2.38-.7l-2.47-7.78c-.68-.48-1.35-.97-2.03-1.44-10.88-7.68-21.51-14.78-31.58-19.71l.01-.01ZM95.37 886.92c12.99-6.86 27.23-10.15 41.33-10.23 7.35.04 14.73.97 21.97 2.81.57-.63 1.22-1.24 1.94-1.83.07-2.87 1-5.33 2.7-7.15.3-.32.63-.61.97-.89-8.34-2.65-17.14-4.23-26.04-4.4h-.1c-.43-.01-.86-.01-1.29-.02h-.3c-.43 0-.86 0-1.29.01h-.1c-12.27.23-24.34 3.15-35.3 7.83-.59.28-1.19.55-1.78.84-6.44 3.16-13.1 7.19-19.92 11.7-4.89 3.24-9.86 6.72-14.88 10.29-3.43 2.45-6.89 4.93-10.36 7.41l-5.64 18.13c9.76-6.8 19.35-14.2 27.31-20.22 8.14-6.16 15.25-11.37 20.77-14.28h.01ZM138.16 660.92h.19a40.2 40.2 0 0 1 2.22-3.99c1.46-2.35 2.56-4.53 3.31-6.53-1.4-.9-2.98-1.33-4.32-1.33-1.06 0-3.52.26-3.58 2.69l-3.1 1.17c-.36-.41-.99-.72-1.8-.91l-3.25 10.44c2.05-.21 3.99-.57 5.66-.89 1.85-.35 3.45-.65 4.67-.65ZM135.65 670.94c-2.63-1.74-5.24-3.36-7.8-4.82-.39.04-.79.06-1.19.09l-3.3 10.62c.41.2.83.39 1.24.6 3.66-2.01 7.35-4.19 11.05-6.5v.01ZM199.88 641.46c13.74-7.09 28.81-10.48 43.72-10.55 14.92.07 29.98 3.47 43.73 10.55 6 3.1 13.79 8.71 22.72 15.32 9.2 6.81 19.8 14.68 30.95 21.98.5 0 1.01-.02 1.51-.02h.05c.86 0 1.72.01 2.58.04h.05c6.26.17 12.34.93 18.2 2.27-14.7-7.81-29.83-18.66-44.23-28.95-1.79-1.28-3.57-2.55-5.35-3.8-10.88-7.68-21.51-14.78-31.58-19.71-11.53-5.65-23.86-8.33-36.1-8.65h-.33c-.3 0-.6-.01-.89-.02h-2.58c-.3 0-.59.01-.89.02h-.34c-12.23.32-24.57 3-36.1 8.65-10.07 4.93-20.7 12.03-31.58 19.71-1.78 1.25-3.56 2.52-5.35 3.8-15.09 10.78-30.99 22.18-46.34 30.05l-3.93 12.62c21.04-9.51 42.54-25.52 59.37-37.98 8.93-6.61 16.72-12.22 22.72-15.32l-.01-.01ZM147.78 609.96c3.55.71 7.29 2.45 10.6 4.96a7.678 7.678 0 0 0 1.56-3.23c-.06-.17-.12-.35-.17-.53-.37-1.36-.37-2.68-.05-3.89-.02-.07-.04-.14-.06-.2-.79-2.3-2.42-3.98-3.9-3.98-.47 0-.94.17-1.4.5l-2.76-1.88c.22-1.06-.44-2.68-1.82-4.44-.33-.42-.7-.84-1.1-1.26-.45 1.62-.99 3.18-1.53 4.27l-2.14 6.87c.05.05.11.1.16.15 1.04 1.01 1.92 1.87 2.6 2.65l.01.01ZM123.62 707.77l3.18 1.51c-1.91 7.33 1.75 10.5 4.18 12.6 1.26 1.09 2.35 2.04 2.19 3.51-.06.61-.39 1.48-1.6 2.13-3.83 2.04-3.64 5.56-3.18 7.48.25 1.06.71 2.13 1.33 3.12 7.08-4.71 13.99-8.91 20.74-12.22 1.43-.7 2.88-1.36 4.35-1.98-.9-.68-1.85-1.08-2.75-1.08-1.14 0-2.13.62-2.95 1.83l-3.19-1.43c.8-3.77-.62-8.33-3.9-12.51-4.75-6.06-12.37-10.13-18.97-10.13-2.85 0-5.44.7-7.73 2.1l-3.28 10.55c.81.54 1.79.9 2.89.9 2.83 0 5.92-2.26 8.69-6.36v-.02ZM139.55 645.42c1.81 0 3.66.47 5.33 1.36.14-.84.19-1.63.16-2.38-3.31-2.1-6.57-4.03-9.79-5.81l-3.1 9.95c.33.09.66.18.96.3 1.1-2.13 3.43-3.43 6.44-3.43v.01ZM126.98 941.32c6 3.1 13.79 8.71 22.72 15.32 9.2 6.81 19.8 14.68 30.95 21.98.5 0 1-.02 1.5-.02h.05c.86 0 1.72.01 2.58.03h.05c6.26.17 12.34.93 18.2 2.27-14.7-7.81-29.83-18.66-44.23-28.95-1.79-1.28-3.57-2.55-5.35-3.8-10.88-7.68-21.51-14.78-31.58-19.71-11.53-5.65-23.86-8.32-36.1-8.65-.11 0-.22 0-.33-.01-.3 0-.59 0-.89-.01-.33 0-.66 0-.99-.01h-.6c-.33 0-.66 0-.99.01-.3 0-.6.01-.89.01-.11 0-.22 0-.34.01-12.04.32-24.17 2.92-35.54 8.38l-3.8 12.22c13.23-6.45 27.61-9.56 41.85-9.63 14.92.07 29.98 3.46 43.73 10.56Z"/><path d="M147.34 639.36c2.57 4.81 1.3 11.38-3.78 19.55-2.39 3.8-3.61 6.95-3.66 9.32 7.48-4.85 14.96-10.12 22.24-15.34 3.22-2.31 6.4-4.59 9.54-6.81 2.39-1.69 4.75-3.34 7.1-4.95-2.72-5.19-6.55-7.55-11.38-7.01l-1.94-1.51c-.89-5.43-3.89-10.48-8.44-14.19-3.9-3.19-8.75-5.17-12.66-5.17-.4 0-.82.02-1.24.07l-6.06 19.48c5.07 1.07 8.52 3.27 10.28 6.57v-.01ZM118.22 746.04c2.39-1.69 4.75-3.34 7.1-4.95-2.72-5.19-6.54-7.55-11.38-7.02l-1.94-1.51c-.49-3-1.65-5.87-3.33-8.48L97.2 760.95c3.86-2.67 7.7-5.4 11.48-8.11 3.22-2.31 6.4-4.59 9.54-6.81v.01Z"/><path d="M112.76 721.68c-.58-.87-1.44-1.83-2.59-2.42l-.17.53c2.45 3.06 4.2 6.55 5.11 10.26-.14-3.65-1.13-6.55-2.35-8.37ZM86.01 831.9c-3-1.96-6-3.99-8.99-6.05l-2.94 9.44c1.04.72 2.09 1.44 3.14 2.15 2.96-1.95 5.89-3.8 8.79-5.54ZM146.42 757.28c13.75-7.09 28.81-10.49 43.72-10.56 14.92.07 29.98 3.47 43.73 10.56 6 3.09 13.79 8.7 22.72 15.31 3.62 2.68 7.46 5.53 11.47 8.44 4.7-1.08 9.54-1.79 14.5-2.12-6.01-4.05-11.85-8.23-17.37-12.32-2.03-1.5-4.02-2.99-5.99-4.44-1.44-1.07-2.85-2.12-4.24-3.15-8.8-6.51-16.41-11.99-22.21-14.99-12.9-6.66-27.63-10.21-42.6-10.28-14.98.08-29.7 3.62-42.6 10.28-5.8 2.99-13.42 8.48-22.22 14.99-1.38 1.03-2.8 2.08-4.24 3.15-1.96 1.46-3.96 2.94-5.99 4.44-7.85 5.8-16.32 11.81-25.05 17.33l-4.78 15.38c13.87-8.5 27.2-18.4 38.44-26.72 8.93-6.61 16.72-12.22 22.72-15.31l-.01.01ZM73.18 838.19l-.78 2.5c.74-.5 1.48-1.02 2.21-1.51l-1.44-.99h.01Z"/><path d="M135.08 780.05c3.51-2.36 7.22-4.55 11.08-6.52 12.83-6.55 27.35-10.76 41.96-11.11.63-.02 1.27-.03 1.91-.03h.25c.64 0 1.27.01 1.9.03 14.61.35 29.13 4.56 41.96 11.11 3.86 1.97 7.57 4.16 11.08 6.52 2.81 1.78 5.64 3.66 8.51 5.6 3.49-1.47 7.08-2.71 10.76-3.72-1.78-1.32-3.55-2.63-5.28-3.92-1.44-1.07-2.85-2.11-4.24-3.14-8.8-6.51-16.41-11.99-22.21-14.98-12.9-6.66-27.63-10.21-42.6-10.29-14.98.08-29.7 3.63-42.6 10.29-5.8 2.99-13.42 8.48-22.22 14.98-1.38 1.03-2.8 2.08-4.24 3.14-1.96 1.46-3.96 2.94-5.99 4.44-9.67 7.14-20.27 14.61-31.15 21.08l-4.6 14.79c9.73-6.03 19.59-13.09 29.32-20.07 9.09-6.52 17.88-12.82 26.4-18.21v.01Z"/><path d="M146.42 741.42c13.75-7.09 28.81-10.49 43.72-10.56 14.92.07 29.98 3.46 43.73 10.56 6 3.09 13.79 8.7 22.72 15.31 9.2 6.81 19.8 14.69 30.95 21.98.5 0 1-.02 1.51-.02h.05c.86 0 1.72.01 2.58.03h.05c6.26.17 12.34.93 18.21 2.27-14.7-7.81-29.84-18.66-44.24-28.95-1.79-1.28-3.58-2.55-5.35-3.81-10.88-7.68-21.51-14.77-31.58-19.71-11.53-5.65-23.86-8.32-36.1-8.65h-.34c-.3 0-.59-.01-.89-.02h-2.58c-.3 0-.59.01-.89.02h-.34c-12.24.32-24.57 3-36.1 8.65-10.07 4.93-20.71 12.03-31.58 19.71-1.78 1.26-3.56 2.53-5.35 3.81-6.14 4.39-12.42 8.88-18.73 13.19l-4.46 14.35c11.65-7.54 22.73-15.77 32.3-22.86 8.93-6.61 16.72-12.22 22.72-15.31l-.01.01ZM152.56 594.28c1.22 1.56 2.03 3.09 2.41 4.52.26-.04.53-.06.79-.06 2.43 0 4.77 1.65 6.28 4.28.14-.11.26-.23.41-.32 3.71-4.2 8.56-6.41 14.04-6.41 7.74 0 16.27 4.51 21.74 11.49 2.87 3.66 4.52 7.53 4.85 11.23.37-.15.75-.26 1.14-.34.67-1.54 1.69-3.11 3.28-4.53-2.27-.5-4.16-1.38-5.66-2.64-2.19-1.83-3.39-4.39-3.39-7.19 0-4.68 3.23-8.49 7.2-8.49.79 0 1.58.15 2.36.44 9.39 1.02 16.02 8.18 17.77 19.21.13.8.21 1.62.28 2.46 4.83-.91 9.8-1.44 14.88-1.57h.05c.86-.02 1.72-.03 2.58-.03h.05c.86 0 1.72.01 2.58.03h.05c13.25.35 25.69 3.34 37.03 8.9 2.75 1.35 5.54 2.86 8.34 4.47 7.69-4.96 15.39-10.39 22.88-15.76 3.22-2.31 6.4-4.59 9.54-6.81 11.17-7.9 21.88-15.06 32.24-20.13 1.14-.56 2.29-1.08 3.45-1.59-.29-1.4-.14-3.05.49-4.76 1.75-4.74 6.38-8.53 12.49-10.28 2.28-3.58 5.25-5.14 7.41-5.82 3.6-1.14 7.53-.6 10.77 1.47 1.79 1.14 3.3 2.71 4.45 4.58 1.21-.9 2.56-1.53 3.99-1.86 3.07-.71 6.45-.02 9.53 1.95 3.27 2.08 6.02 5.48 7.61 9.61.65.14 1.3.3 1.94.46 1.19-2.08 3.06-4.04 5.17-4.52 2-.92 3.96-1.51 5.87-1.78.3-.81.62-1.59.97-2.28l145.46-430.73c1.28-3.84 1.28-6.39 1.28-8.95 0-6.39-5.11-10.23-10.21-10.23H333.44c-5.1 0-8.93 3.83-10.21 10.23l-29.34 132.92c-1.28 5.11-3.83 8.94-6.39 8.94-1.27 0-3.82-3.83-5.1-8.94l-29.34-132.92c-1.28-5.11-5.11-10.23-10.21-10.23H9.35c-7.66 0-10.21 7.67-7.66 14.06l145.47 440.95c1.27 3.83 2.55 10.23 2.55 12.78 0 .34-.02.74-.07 1.16 1.12 1 2.11 2.02 2.92 3.05v-.02ZM81.64 880c3.51-2.36 7.22-4.55 11.08-6.52 12.83-6.56 27.35-10.76 41.96-11.12.63-.02 1.27-.03 1.91-.03h.24c.64 0 1.27.01 1.91.03 9.84.24 19.64 2.23 28.91 5.5 1.09-.33 2.27-.51 3.51-.51 3.22 0 6.55 1.12 9.58 3.21 1.41-2.98 4.37-4.69 8.33-4.7-3.64-2.49-6.92-4.56-9.76-6.02-12.91-6.66-27.63-10.21-42.6-10.28-14.98.07-29.7 3.62-42.61 10.28-5.8 2.99-13.42 8.48-22.22 14.99-1.38 1.02-2.8 2.07-4.23 3.14-1.96 1.46-3.96 2.94-5.99 4.44-.95.7-1.92 1.41-2.89 2.12l-4.46 14.34c.31-.22.61-.44.92-.66 9.09-6.52 17.88-12.82 26.4-18.21h.01Z"/><path d="M92.97 857.23c13.75-7.09 28.81-10.48 43.73-10.56 14.92.07 29.98 3.47 43.72 10.56 4.33 2.24 9.59 5.78 15.54 10.06 4.02 1.58 8.13 4.44 11.37 8.36.93.69 1.87 1.38 2.83 2.08.57-3.61 1.86-6.8 3.84-9.52-.76-.56-1.52-1.11-2.27-1.67-2.03-1.5-4.02-2.98-5.99-4.44-1.44-1.07-2.85-2.12-4.23-3.15-8.8-6.51-16.41-11.99-22.21-14.99-12.91-6.66-27.63-10.21-42.6-10.28-14.98.08-29.7 3.63-42.61 10.28-5.8 2.99-13.42 8.48-22.22 14.99-1.38 1.03-2.8 2.07-4.23 3.15-.82.61-1.64 1.22-2.47 1.84l-4.98 16.02c3.5-2.56 6.87-5.05 10.07-7.42 8.93-6.61 16.72-12.22 22.71-15.32v.01ZM423.87 580.25c-.3.06-1.22.8-2.01 2.14 1.77.51 3.51 1.09 5.23 1.71.26-1.64.61-3.48 1.07-5.33-1.17.27-2.36.69-3.58 1.27l-.71.21ZM423.99 714.62c3 2.15 6.04 4.32 9.1 6.45 9.19-5.39 18.53-11.88 27.8-18.49l-2.91-9.15c-11.31 7.73-23.33 15.06-35.22 20.31.41.3.82.59 1.23.88ZM23.95 1016.43c8.21-6.22 16.14-11.8 23.86-15.95.89-.48 1.8-.93 2.7-1.37 9.98-4.83 20.86-7.29 32.42-7.29h.65c11.55 0 22.44 2.46 32.42 7.29.91.44 1.81.89 2.71 1.37.36.19.72.4 1.07.6 3.75-2.53 7.45-4.93 11.1-7.14-2.7-1.83-5.17-3.38-7.36-4.54-12.2-6.44-26.11-9.88-40.26-9.97-14.15.09-28.07 3.53-40.26 9.97-5.39 2.85-12.44 8.02-20.58 14.19-.28.21-.57.44-.86.65l-4.16 13.39c1.89-.25 3.81-.44 5.74-.57.28-.21.55-.42.83-.63h-.02ZM456.27 773.95c-6.43 3.15-13.1 7.19-19.92 11.7-4.89 3.23-9.86 6.71-14.88 10.29-12.97 9.23-26.25 19.07-39.3 26.86a405.3 405.3 0 0 0 7.12 4.83h7.02c12.75-8.18 26.03-18.47 36.47-26.37 8.14-6.16 15.25-11.37 20.77-14.28 9.86-5.21 20.44-8.36 31.13-9.61l-3.5-10.99c-8.03 1.28-15.83 3.61-23.14 6.73-.59.27-1.19.55-1.78.84h.01ZM414.45 707.81c1.83 1.29 3.67 2.61 5.52 3.93 12.48-5.33 25.2-13.11 37.08-21.22l-3.23-10.16c-14.88 9.87-30.78 18.72-45.9 22.89 2.16 1.48 4.33 3 6.53 4.55v.01Z"/><path d="M83.25 976.64c14.1.08 28.34 3.37 41.33 10.24 2.61 1.38 5.59 3.28 8.86 5.55 3.05-1.78 6.07-3.43 9.05-4.89.44-.21.87-.42 1.31-.62-.68-.45-1.35-.91-2.03-1.36-6.81-4.51-13.48-8.54-19.91-11.7-.59-.29-1.18-.57-1.78-.84-10.96-4.68-23.03-7.6-35.29-7.83h-.1c-.43-.01-.86-.01-1.29-.01h-.3c-.43 0-.86 0-1.29.01h-.1c-12.27.22-24.33 3.15-35.3 7.83-.59.27-1.19.55-1.78.84-5.39 2.65-10.94 5.91-16.61 9.55l-5.11 16.43c7.41-5.58 13.9-10.26 19.01-12.96 12.99-6.86 27.23-10.15 41.33-10.24ZM430.06 759.01c-1.38 1.03-2.8 2.08-4.24 3.15-1.96 1.46-3.96 2.94-5.99 4.44-19.75 14.58-43.39 30.55-65.37 36.62 2.16 1.48 4.33 2.99 6.53 4.55 1.83 1.29 3.67 2.61 5.53 3.93 21.84-9.33 44.41-26.14 61.91-39.1 8.93-6.61 16.72-12.22 22.72-15.31 7.8-4.03 16.03-6.86 24.41-8.57l-3.83-12.02c-6.79 1.72-13.33 4.17-19.46 7.34-5.8 2.99-13.42 8.48-22.21 14.99v-.02ZM464.01 721.28l-.75.54c-.65.46-1.29.92-1.94 1.38 1.81-.72 3.65-1.36 5.51-1.95l-.52-1.63c-.73.53-1.45 1.06-2.18 1.59-.04.03-.08.06-.12.08v-.01Z"/><path d="M430.06 774.87c-1.38 1.03-2.8 2.08-4.24 3.14-1.96 1.46-3.96 2.94-5.99 4.44-15.36 11.35-33.08 23.52-50.53 31.23.41.3.82.59 1.23.88 3.01 2.15 6.04 4.32 9.1 6.45 11.16-6.55 22.56-14.71 33.78-22.76 9.09-6.52 17.88-12.82 26.4-18.21 3.51-2.36 7.22-4.55 11.08-6.52 9.14-4.67 19.14-8.14 29.42-9.88l-3.87-12.16c-8.47 1.7-16.63 4.52-24.17 8.41-5.8 2.99-13.42 8.48-22.21 14.98ZM424.69 748.24c-1.78 1.26-3.56 2.53-5.35 3.81-25.48 18.2-53.03 38.14-76.58 39.92h-.51c-2.53-.2-4.85-.59-7.47-1.17 2.56 1.42 4.96 2.84 7.57 4.45l.58.36c2.88 1.79 5.41 3.45 8.35 5.43 26.16-6.37 55.53-28.28 77.17-44.3 8.93-6.61 16.72-12.22 22.72-15.31 6.34-3.27 12.96-5.74 19.71-7.48l-3.17-9.97a82.917 82.917 0 0 0-11.42 4.57c-10.07 4.93-20.7 12.03-31.58 19.71l-.02-.02ZM442.74 727.67h7.02c5.22-3.34 10.52-7.04 15.68-10.79l-3.66-11.51c-8.72 6.21-17.49 12.29-26.15 17.46 2.36 1.63 4.74 3.25 7.11 4.83v.01ZM83.25 946.62c14.92.07 29.98 3.47 43.73 10.56 6 3.09 13.79 8.7 22.72 15.31 3.62 2.68 7.46 5.53 11.47 8.44 4.7-1.08 9.55-1.78 14.51-2.11-6.01-4.05-11.85-8.24-17.37-12.32-2.03-1.5-4.03-2.98-5.99-4.44-1.44-1.07-2.85-2.12-4.24-3.14-8.8-6.51-16.42-11.99-22.22-14.99-12.9-6.66-27.63-10.21-42.6-10.28-14.97.07-29.7 3.62-42.6 10.28-.14.07-.28.15-.42.22l-4.77 15.33c1.43-.87 2.79-1.65 4.06-2.3 13.75-7.09 28.81-10.49 43.72-10.56ZM353.37 605.84c-5.8 2.99-13.42 8.47-22.22 14.99-1.38 1.03-2.79 2.07-4.23 3.15-1.96 1.46-3.96 2.94-5.99 4.44-4.87 3.6-9.98 7.27-15.24 10.87 2.92 1.96 5.87 4 8.85 6.11 5.28-3.79 10.32-7.53 14.99-10.99 8.93-6.61 16.72-12.21 22.72-15.31 13.75-7.09 28.81-10.49 43.73-10.56 9.17.04 18.39 1.35 27.33 3.99 1.89-1.68 4.17-2.54 6.87-2.54.42 0 .85.03 1.28.07l-2.29-7.21c-.14-.41-.27-.86-.4-1.34-10.34-3.85-21.49-5.89-32.78-5.95-14.98.08-29.7 3.63-42.6 10.29l-.02-.01ZM421.88 622.56l-.6.95c-3.37 2.81-4.77 6.26-3.75 9.23.69 2.01 2.38 3.36 4.19 3.36 2.59 0 4.95-2.76 6.32-7.38l1.57-1.29c1.8-.13 3.33-.2 4.68-.2 1 0 1.87.04 2.66.12l-4.27-13.41c-.87-.2-1.71-.31-2.52-.31-1.48 0-5.98 0-8.29 8.93h.01Z"/><path d="m81.23 962.32 1.91-.03h.24c.64 0 1.27.02 1.9.03 14.61.36 29.13 4.56 41.96 11.12 3.86 1.97 7.57 4.16 11.08 6.52 2.81 1.78 5.64 3.66 8.51 5.6 3.49-1.48 7.08-2.71 10.76-3.72-1.78-1.32-3.55-2.63-5.27-3.91-1.44-1.07-2.85-2.12-4.24-3.14-8.8-6.51-16.42-11.99-22.22-14.99-12.9-6.66-27.63-10.21-42.6-10.29-14.97.08-29.7 3.63-42.6 10.29-1.96 1.01-4.12 2.31-6.47 3.83l-4.85 15.59c3.17-2.07 6.49-4.01 9.94-5.78 12.83-6.56 27.35-10.76 41.96-11.12h-.01ZM398.15 581.69c-.3 0-.59-.01-.89-.02h-2.58c-.3 0-.59.01-.89.02h-.34c-12.24.32-24.57 3-36.1 8.65-10.07 4.93-20.7 12.03-31.58 19.71-1.78 1.26-3.56 2.53-5.35 3.81-8.53 6.1-17.33 12.39-26.13 18.13 2.9 1.74 5.82 3.59 8.78 5.54 9.5-6.41 18.5-13.1 26.45-18.98 8.93-6.61 16.72-12.22 22.72-15.32 13.75-7.09 28.81-10.48 43.73-10.55 10.77.05 21.61 1.84 31.98 5.5-.77-3.63-1.35-7.67-1.35-9.39 0-.43.04-1.05.11-1.79-9.19-3.37-18.74-5.05-28.23-5.3h-.33v-.01ZM395.78 692.01c-2.53-.19-4.93-.59-7.55-1.17 2.55 1.42 4.92 2.81 7.52 4.42l.63.39c2.89 1.79 5.4 3.44 8.34 5.42 15.69-3.82 32.54-13.24 48.18-23.62l-2.99-9.39c-18.55 12.37-37.3 22.7-53.94 23.96l-.2-.02.01.01ZM431.05 630.99c-.03.09-.07.18-.1.27 2.4.96 4.76 2.01 7.07 3.13.25-.5.5-1.02.7-1.5l-.53-1.66c-.68-.18-1.86-.35-3.9-.35-.95 0-2.03.04-3.24.11Z"/><path d="M435.23 643.83c-.73-1.15-4.27-2.39-10.3-2.39-12.03 0-27.11 4.74-32.66 13.78-3.19 5.21-3.11 11.5.26 18.7l.17.75c.07.72 2.53 2.62 5.25 2.62 1.28 0 2.23-.44 2.83-1.29.77-1.1 1.73-4-.58-11.14l2.6-2.14c2.99 1.83 6.76 2.71 11.52 2.71 2.17 0 4.25-.17 6.08-.32 1.48-.13 2.76-.23 3.85-.23 1.36 0 2.89.14 3.84 1.21.38.43.82 1.17.73 2.31-.12 1.49-.21 2.76-.3 3.86-.19 2.69-.34 4.49-.65 5.98 6.99-3.74 14.1-8.18 21.17-12.91l-8.74-27.48c-.8 1.64-1.58 3.41-1.81 5.23l-3.25.76-.01-.01ZM346.66 986.88c12.99-6.86 27.23-10.15 41.33-10.24 14.1.08 28.34 3.37 41.33 10.24 2.61 1.38 5.58 3.28 8.85 5.54 3.04-1.78 6.06-3.43 9.05-4.89.44-.21.88-.42 1.32-.62l-2.02-1.36c-.71-.47-1.42-.93-2.13-1.39-2.78 3.1-5.7 4.67-8.75 4.67-4.92 0-8.49-4.17-10.19-8.07-1.06-2.43-1.69-5.49-.93-7.87-10.88-4.6-22.84-7.48-34.99-7.7h-.1c-.43-.01-.86-.01-1.29-.01h-.3c-.43 0-.86 0-1.29.01h-.1c-12.27.22-24.33 3.15-35.3 7.83-.59.27-1.19.55-1.78.84-6.43 3.16-13.1 7.19-19.91 11.7-4.89 3.24-9.86 6.72-14.88 10.29-1.62 1.15-3.25 2.32-4.88 3.49l2.3 12.33c4.95-3.69 9.65-7.29 13.89-10.5 8.14-6.16 15.25-11.37 20.77-14.28v-.01Z"/><path d="M344 973.43c12.83-6.56 27.35-10.76 41.96-11.12l1.91-.03h.24c.63 0 1.27.02 1.91.03 12.25.3 24.43 3.31 35.61 8.14 1.64-3.97 4.09-7.14 7.23-9.42-.78-.45-1.54-.86-2.26-1.24-12.9-6.66-27.63-10.21-42.6-10.29-14.98.08-29.7 3.63-42.6 10.29-5.8 2.99-13.42 8.47-22.21 14.99-1.38 1.03-2.8 2.07-4.24 3.14-1.96 1.46-3.96 2.94-5.99 4.44-1.85 1.36-3.73 2.74-5.64 4.12l1.83 9.81c8.16-5.85 16.08-11.47 23.79-16.34 3.51-2.36 7.22-4.54 11.08-6.52H344ZM92.97 841.37c13.75-7.09 28.81-10.49 43.73-10.56 14.92.07 29.98 3.47 43.72 10.56 6 3.1 13.79 8.7 22.72 15.32.92.68 1.87 1.38 2.81 2.09-.73-3.75.6-7.08 3.41-8.82-.83-.59-1.66-1.18-2.48-1.76-10.88-7.68-21.51-14.78-31.58-19.71-11.53-5.65-23.86-8.33-36.1-8.65h-.34c-.29 0-.59-.01-.89-.02H135.4c-.3 0-.59.01-.89.02h-.34c-12.23.32-24.57 3-36.1 8.65-8.66 4.24-17.74 10.09-27.03 16.53l-4.47 14.39c1.25-.92 2.47-1.83 3.67-2.72 8.93-6.61 16.72-12.22 22.72-15.32h.01Z"/><path d="M344.26 957.18c13.75-7.09 28.81-10.49 43.72-10.56 14.92.07 29.98 3.47 43.72 10.56 1.22.63 2.51 1.36 3.86 2.18 3.36-1.72 7.32-2.63 11.8-2.63.87 0 1.74.04 2.61.1-7.6-5.59-14.22-10.24-19.39-12.9-12.9-6.66-27.63-10.21-42.6-10.28-14.98.07-29.7 3.62-42.6 10.28-5.8 2.99-13.42 8.48-22.21 14.99-1.38 1.02-2.8 2.07-4.24 3.14-1.96 1.46-3.96 2.94-5.99 4.44-2.68 1.98-5.44 3.99-8.25 5.99l2.03 10.87c5.22-3.75 10.2-7.44 14.82-10.86 8.93-6.61 16.72-12.22 22.72-15.31v-.01ZM328.68 1016.43c8.21-6.22 16.14-11.8 23.85-15.95.89-.48 1.8-.93 2.7-1.37 9.98-4.83 20.86-7.29 32.42-7.29h.64c11.55 0 22.44 2.46 32.42 7.29.91.44 1.81.89 2.7 1.37.36.19.71.4 1.07.59 2.05-1.38 4.09-2.73 6.11-4.02 1.25-1.15 2.66-2.03 4.23-2.65.25-.16.51-.32.76-.47-2.7-1.83-5.16-3.37-7.35-4.53-12.2-6.44-26.11-9.88-40.27-9.97-14.16.09-28.07 3.53-40.27 9.97-5.39 2.85-12.44 8.02-20.58 14.19-1.46 1.1-2.94 2.24-4.46 3.39-2.43 1.84-4.92 3.74-7.45 5.64-.55.42-1.12.84-1.69 1.27-.32.24-.65.48-.98.73l.85 4.58c4.69-1.08 9.51-1.8 14.45-2.14.28-.21.56-.42.83-.63h.02Z"/><path d="M344.26 941.32c13.75-7.09 28.81-10.48 43.72-10.56 14.92.07 29.98 3.46 43.72 10.56 6 3.1 13.79 8.71 22.72 15.32.48.36.97.72 1.46 1.08 10.58 2.32 20.6 8.42 25.51 14.38 1.7 2.07 2.83 4.13 3.36 6.11.18.12.36.24.54.35.92-.33 1.87-.5 2.83-.5 1.12 0 2.23.22 3.3.64 5.05.23 9.98.85 14.77 1.85-.24-.28-.48-.58-.72-.89-3.15-1.73-6.31-3.59-9.47-5.55-.82.2-1.59.28-2.27.28-4.18 0-7.96-3.04-9.18-7.4-.03-.11-.04-.22-.07-.34-7.07-4.77-14.1-9.8-20.97-14.7-1.79-1.28-3.57-2.55-5.35-3.8-10.88-7.68-21.51-14.78-31.58-19.71-11.53-5.65-23.86-8.32-36.1-8.65-.11 0-.22 0-.33-.01-.3 0-.59 0-.89-.01-.33 0-.66 0-.99-.01h-.59c-.33 0-.66 0-.99.01-.3 0-.59.01-.89.01-.11 0-.23 0-.34.01-12.23.32-24.57 3-36.1 8.65-10.07 4.93-20.7 12.03-31.58 19.71-1.78 1.26-3.56 2.52-5.36 3.8-3.37 2.41-6.78 4.85-10.22 7.27l1.89 10.14c6.18-4.39 12.05-8.74 17.44-12.73 8.93-6.61 16.72-12.22 22.72-15.32l.01.01ZM128.69 724.68s-.01 0-.02-.02c-3.55-2.46-7.08-4.96-10.57-7.44-1.18.41-2.25.57-3.17.57-.26 0-.52-.01-.78-.03.55.55 1.07 1.16 1.54 1.86 1.73 2.58 2.71 5.84 2.95 9.45 1.96 1.41 3.96 2.83 5.99 4.25-.09-3.48 1.41-6.49 4.3-8.43l-.24-.21ZM532.83 1056.67c.74-.29 1.54-.46 2.37-.53-1.22-.84-2.39-1.62-3.51-2.33.49.89.9 1.85 1.14 2.86ZM139.74 1075.24c1.01 1.14 1.98 2.36 2.87 3.67 1.55.16 3.11.39 4.66.69-2.5-1.38-5.01-2.84-7.53-4.36Z"/><path d="M303.55 940.68c1.36 0 2.89.14 3.84 1.21.38.42.82 1.17.73 2.31-.12 1.48-.22 2.76-.3 3.86-.12 1.62-.22 2.9-.35 4 2.89-2.07 5.75-4.12 8.58-6.12 11.17-7.9 21.88-15.06 32.24-20.13 11.34-5.55 23.78-8.54 37.03-8.9h.05c.86-.02 1.72-.04 2.58-.04h.05c.29 0 .59.01.88.01.14-2.91-.39-5.54-1.31-7.63-1.31-2.99-3.44-4.91-5.41-4.91-1.12 0-2.18.62-3.16 1.85l-3.07-1.71c1.6-5.11-.96-10.26-3.39-13.68-5.8-8.16-16.51-14.56-24.38-14.56-3.26 0-5.73 1.09-7.34 3.24-.72.96-.58 1.59-.33 2.12 1.81 3.77 12.91 7.31 18.58 7.31.99 0 1.5-.11 1.73-.18 1.17-.36 2.18-.54 3.09-.54 2.31 0 3.95 1.27 4.37 3.39.98 4.95-4.97 14.11-8.51 15.66-2.3.99-3.76 2.7-4.34 5.1l-1.73 1.38c-1.5 0-1.78-1.36-2.02-2.56-.65-3.21-2.62-13-9.26-13-2.46 0-5.44 1.26-8.84 3.73l-2.1-.03c-.6-.46-1.24-.97-1.91-1.5-5.5-4.35-13.8-10.92-20.07-10.92-1.48 0-5.98 0-8.29 8.93l-.6.95c-3.37 2.81-4.78 6.26-3.75 9.23.7 2.01 2.38 3.36 4.18 3.36 2.59 0 4.96-2.76 6.32-7.37l1.57-1.29a65.4 65.4 0 0 1 4.68-.19c4.45 0 6.79.74 7.82 2.48 1.23 2.08 0 4.5-1.29 7.05-.97 1.91-2.07 4.08-2.35 6.3l-3.25.76c-.73-1.15-4.27-2.39-10.31-2.39-3.09 0-6.39.32-9.68.94l4.25 22.79c.3-.02.6-.05.89-.07 1.48-.13 2.76-.24 3.85-.24h.03ZM122.76 714.33c-.63.58-1.25 1.05-1.86 1.46.85.6 1.69 1.21 2.54 1.81-.34-.98-.58-2.06-.68-3.27ZM303.55 953.74c-.91-.63-1.81-1.25-2.71-1.88l.81 4.35c.44-.31.89-.62 1.34-.94.24-.51.42-1.01.56-1.53Z"/><path d="M304.29 947.78c.07-.99.15-2.11.26-3.4-.21-.03-.52-.05-.99-.05-.95 0-2.16.1-3.56.22-.16.01-.34.03-.51.04l.63 3.36c1.31.89 2.62 1.8 3.94 2.72.08-.82.15-1.75.23-2.89ZM140.85 1048.6c12.99-6.86 27.23-10.15 41.33-10.24 14.1.08 28.33 3.37 41.33 10.24 4.89 2.58 11.04 6.98 18.05 12.24 3.14-2.17 6.26-4.38 9.35-6.58-3.43-2.41-6.83-4.75-10.2-6.98-6.81-4.51-13.48-8.55-19.92-11.7-.59-.29-1.18-.57-1.78-.84-10.96-4.68-23.03-7.6-35.29-7.83h-.1c-.43 0-.86-.01-1.29-.01h-.3c-.43 0-.86 0-1.29.01h-.1c-12.27.23-24.33 3.15-35.3 7.83-.59.27-1.19.55-1.78.84-6.43 3.15-13.1 7.19-19.92 11.7a445.19 445.19 0 0 0-10.21 6.99c3.09 2.21 6.21 4.41 9.34 6.59 7.02-5.26 13.17-9.66 18.06-12.24l.02-.02ZM484.58 827.63h8.99c1.73-1.15 3.46-2.31 5.18-3.49-.66-.02-1.33-.04-1.99-.04-.63 0-1.25.01-1.87.03-.63-.02-1.25-.03-1.87-.03-4.33 0-8.68.46-12.95 1.26.35.17.71.33 1.06.5 1.15.56 2.3 1.16 3.46 1.77h-.01ZM436.79 636.88c-.74-.38-1.48-.75-2.21-1.12-.59-.29-1.18-.57-1.78-.84-.97-.41-1.94-.81-2.93-1.19-.97 1.89-2.06 3.21-3.15 4.1 2.83.11 6.38.55 8.91 1.83.33-.99.74-1.92 1.15-2.79l.01.01Z"/><path d="M182.17 1041.16c-14.15.09-28.07 3.52-40.27 9.97-4.53 2.4-10.24 6.44-16.78 11.32 3.38 2.32 6.77 4.58 10.17 6.75 3.87-2.61 7.68-4.98 11.44-6.99.89-.47 1.8-.93 2.71-1.37 9.98-4.83 20.86-7.29 32.42-7.29h.64c11.55 0 22.44 2.46 32.42 7.29.91.44 1.81.89 2.7 1.37 3.76 2.02 7.57 4.38 11.43 6.99 3.39-2.17 6.79-4.43 10.17-6.74-6.54-4.89-12.25-8.93-16.78-11.32-12.2-6.45-26.11-9.88-40.26-9.97l-.01-.01ZM296.71 914.14c-1.43-1.02-2.58-2.53-3.22-4.36-.89-2.59-.66-5.33.57-7.92-6.78-4.48-13.42-8.5-19.83-11.64-11.53-5.65-23.86-8.33-36.1-8.65h-.34c-.3 0-.59-.01-.89-.02h-2.58c-.3 0-.6 0-.89.02h-.34c-12.23.32-24.57 3-36.1 8.65-10.06 4.93-20.7 12.03-31.58 19.71-1.78 1.25-3.56 2.52-5.35 3.8-8.53 6.1-17.33 12.39-26.13 18.13 2.9 1.74 5.83 3.59 8.79 5.54 9.5-6.41 18.5-13.1 26.45-18.99 8.93-6.61 16.72-12.22 22.72-15.31 13.74-7.09 28.81-10.49 43.73-10.56 14.92.07 29.98 3.47 43.72 10.56 2.28 1.18 4.82 2.72 7.59 4.54.54-.4 1.15-.6 1.86-.6 1 0 2.78 1.58 4.12 4.71 1.12.79 2.25 1.6 3.42 2.45l.37-.06h.01ZM508.95 1077.72l-.33-2.27c-6.15-2.04-12.58-3.3-19.08-3.56l-.78-.03c-.18 0-.36 0-.54-.01-.41 0-.82-.01-1.23-.01h-.2c-.41 0-.82 0-1.23.01-.18 0-.36.01-.53.01-.26 0-.52.02-.78.03-9.59.38-19.05 2.93-27.66 6.99 1.33.69 2.65 1.35 3.97 1.98h52.7c1.15-.55 2.3-1.13 3.46-1.73-4.13-.23-6.56-.65-7.76-1.42l-.01.01ZM371.37 1072.97c-10.96-4.68-23.03-7.61-35.3-7.83h-.1c-.43 0-.86-.01-1.29-.02h-.3c-.43 0-.86 0-1.29.01h-.1c-3.64.07-7.26.38-10.84.89l1.1 5.88c.49 1.96 1.35 3.72 2.44 5.16 2.94-.3 5.9-.47 8.84-.48 9.09.05 18.24 1.45 27.07 4.27h24.19c-4.3-2.64-8.53-5.03-12.66-7.06-.59-.29-1.18-.57-1.77-.84l.01.02ZM328.41 1079.65c1.19.77 2.48 1.22 3.77 1.22h17.98a89.554 89.554 0 0 0-15.63-1.47c-2.05.01-4.09.1-6.13.25h.01Z"/><path d="M214.4 1063.6c-9.99-4.48-20.93-7.2-32.23-7.25-11.29.05-22.24 2.77-32.22 7.25-.76.37-1.52.76-2.27 1.16-3.25 1.74-6.56 3.77-9.92 6 3.7 2.31 7.39 4.49 11.05 6.5 8.98-4.59 18.89-7.48 28.88-8.16.12 0 .25-.01.37-.02.56-.04 1.11-.06 1.66-.08.15 0 .29-.01.43-.02.66-.02 1.33-.03 2-.03h.05c.66 0 1.33 0 2 .03.14 0 .28.01.43.02.55.02 1.11.05 1.66.08.12.01.25.02.37.02 9.99.67 19.89 3.56 28.87 8.15 3.66-2 7.35-4.19 11.05-6.5-3.36-2.22-6.67-4.25-9.92-5.99-.75-.4-1.51-.79-2.27-1.16h.01ZM404.73 1048.1c-10.88-7.68-21.51-14.78-31.58-19.71-11.53-5.65-23.86-8.33-36.1-8.65h-.33c-.3 0-.59-.01-.89-.02h-2.58l-.89.02h-.34c-6.04.16-12.1.9-18.08 2.28l1.97 10.55a99.232 99.232 0 0 1 18.63-1.86c14.92.07 29.98 3.47 43.72 10.56 6 3.09 13.79 8.7 22.72 15.32 10.17 7.53 22.06 16.36 34.51 24.27h18.85c-14.7-7.81-29.85-18.66-44.25-28.96-1.79-1.28-3.58-2.55-5.35-3.8h-.01Z"/><path d="M403.59 1062.02c-1.44-1.07-2.85-2.12-4.23-3.15-8.8-6.51-16.41-11.99-22.22-14.99-12.9-6.66-27.63-10.21-42.6-10.28-6.11.03-12.18.65-18.1 1.81l2.33 12.51c5.23-.87 10.51-1.31 15.76-1.34 14.92.07 29.98 3.47 43.72 10.56 6 3.1 13.79 8.7 22.72 15.32 3.61 2.67 7.45 5.51 11.44 8.41h17.68c-7.13-4.69-14.03-9.62-20.51-14.41-2.03-1.5-4.02-2.98-5.99-4.44Z"/><path d="M399.35 1074.74c-8.8-6.51-16.41-11.99-22.22-14.99-12.9-6.66-27.63-10.21-42.6-10.28-5.13.03-10.23.47-15.24 1.29l2.33 12.47c3.61-.54 7.24-.87 10.88-.96l1.9-.03h.24c.63 0 1.27.01 1.9.03 14.61.35 29.13 4.56 41.96 11.12 3.86 1.98 7.57 4.16 11.08 6.52.49.31.99.64 1.49.96h16.53c-1.35-1-2.71-2.01-4.03-2.99-1.44-1.07-2.85-2.12-4.23-3.14h.01ZM235.63 895.42c-14.98.07-29.7 3.62-42.6 10.29-5.8 2.99-13.42 8.47-22.22 14.98a754.52 754.52 0 0 0-4.23 3.15c-1.96 1.45-3.96 2.94-5.99 4.44-4.87 3.6-9.98 7.28-15.24 10.87 2.92 1.97 5.87 4.01 8.85 6.11 5.28-3.79 10.32-7.53 14.99-10.98 8.93-6.61 16.72-12.22 22.72-15.31 13.74-7.09 28.81-10.49 43.73-10.56 14.92.08 29.98 3.47 43.72 10.56l.57.3c1.03-.53 2.11-1.02 3.2-1.47l.57-3.08c.5-1.99 1-3.59 1.57-4.81-2.56-1.68-4.92-3.11-7.03-4.19-12.9-6.66-27.63-10.21-42.6-10.29l-.01-.01ZM271.58 931.04c-3.19 5.21-3.11 11.5.25 18.69l.17.76c.06.65 2.11 2.27 4.53 2.56l5.77-30.89c-4.59 2.23-8.46 5.19-10.72 8.89v-.01ZM267.85 963.65c-9.99-4.48-20.93-7.2-32.22-7.25-11.3.05-22.24 2.77-32.23 7.25-.76.37-1.52.76-2.27 1.16-3.24 1.75-6.55 3.77-9.92 6 3.7 2.31 7.39 4.49 11.05 6.5 8.98-4.59 18.88-7.48 28.88-8.15.12 0 .25-.02.37-.02.55-.04 1.1-.06 1.66-.08.14 0 .29-.01.43-.01.66-.02 1.33-.04 2-.04h.05c.66 0 1.33.01 2 .04.14 0 .29.01.43.01.56.02 1.11.05 1.66.08.13 0 .25.02.38.02 9.99.67 19.89 3.56 28.87 8.15 1.12-.61 2.25-1.25 3.38-1.9l1.57-8.42c-1.28-.76-2.56-1.49-3.82-2.17-.75-.4-1.51-.79-2.27-1.16v-.01ZM207.44 600.56l-.51-.13c-.43-.18-.86-.28-1.27-.28-1.94 0-3.64 2.27-3.64 4.84 0 1.2.36 2.93 2.08 4.37 1.81 1.51 4.7 2.31 8.37 2.31h.71l.69 3.52c-3.02 1.2-4.78 2.81-5.82 4.52 1.41.53 2.76 1.49 3.94 2.78 3.44-1.26 6.96-2.31 10.57-3.14-.06-.87-.14-1.74-.28-2.61-1.48-9.38-7.03-15.43-14.84-16.18ZM235.63 995.27c2.88 1.79 5.8 3.69 8.74 5.67 8.15-1.99 16.62-5.48 25.07-9.84l2.26-12.11c-12.51 7.01-24.78 12.05-36.07 12.9v3.38ZM254.1 1007.67c1.83 1.29 3.67 2.61 5.53 3.93 2.18-.93 4.36-1.95 6.54-3.02l2.58-13.84c-7.11 3.54-14.23 6.45-21.18 8.37 2.16 1.48 4.33 3 6.53 4.55v.01Z"/><path d="M268.49 951.01c-.6-1.32-1.1-2.61-1.51-3.88-9.87-3.83-20.54-5.85-31.35-5.92-14.16.09-28.07 3.53-40.27 9.97-4.54 2.39-10.24 6.44-16.79 11.33 3.38 2.31 6.77 4.58 10.17 6.74 3.87-2.61 7.68-4.97 11.44-6.99.89-.48 1.8-.93 2.7-1.37 9.98-4.83 20.86-7.29 32.42-7.29h.64c11.55 0 22.44 2.46 32.42 7.29.91.44 1.81.89 2.7 1.37 1.13.6 2.26 1.25 3.39 1.91l1.4-7.52c-3.42-.51-6.98-2.81-7.38-5.64h.02ZM263.64 1014.48c.42.3.84.6 1.26.89l.59-3.19c-1.03.48-2.06.96-3.09 1.41.41.29.82.58 1.23.88l.01.01ZM0 1105.43c0-1.62 1.3-3.08 3.08-3.08h37.75c19.12 0 34.83 13.12 34.83 30.13 0 12.47-11.18 21.55-18.79 25.6 8.59 3.56 21.71 11.5 21.71 26.41 0 18.14-16.04 31.27-35.32 31.27H3.08c-1.78 0-3.08-1.46-3.08-3.08v-107.25Zm37.91 42.93c6.16 0 11.34-5.18 11.34-11.66s-5.18-11.02-11.34-11.02H25.27v22.68h12.64Zm2.1 44.23c6.32 0 11.66-5.18 11.66-11.83s-6.97-11.34-13.28-11.34H25.27v23.17h14.74Zm44.55 18.95 50.71-109.03c.49-.97 1.62-1.78 2.75-1.78h1.62c1.13 0 2.27.81 2.75 1.78l50.71 109.03c.97 2.11-.32 4.21-2.75 4.21h-17.98c-2.92 0-4.21-.97-5.67-4.05l-5.83-12.8h-44.06l-5.83 12.96c-.81 1.94-2.59 3.89-5.83 3.89H87.33c-2.43 0-3.73-2.11-2.75-4.21h-.02Zm66.59-34.67-12.31-26.73h-.16l-12.15 26.73h24.62Zm79.21-19.28-32.72-50.71c-1.3-2.11 0-4.54 2.75-4.54h23.65c1.13 0 2.11.81 2.59 1.46l18.63 30.13h.16l18.96-30.13c.32-.65 1.46-1.46 2.59-1.46h23.65c2.75 0 4.21 2.43 2.75 4.54l-32.89 50.71 34.02 53.62c1.46 2.27 0 4.54-2.59 4.54h-22.52c-.97 0-2.27-.65-2.75-1.46l-21.22-32.72h-.32l-20.74 32.72c-.49.65-1.46 1.46-2.75 1.46h-22.52c-2.75 0-4.21-2.43-2.75-4.54l34.02-53.62Zm96.72-31.42h-23.17c-1.78 0-3.08-1.46-3.08-3.08v-17.66c0-1.62 1.3-3.08 3.08-3.08h71.93c1.78 0 3.08 1.46 3.08 3.08v17.66c0 1.62-1.29 3.08-3.08 3.08h-23.17v86.51c0 1.62-1.46 3.08-3.08 3.08h-19.44c-1.62 0-3.08-1.46-3.08-3.08v-86.51h.01Zm68.04-20.74c0-1.62 1.29-3.08 3.08-3.08h67.07c1.78 0 3.08 1.46 3.08 3.08v17.66c0 1.62-1.3 3.08-3.08 3.08h-44.88v20.09h36.94c1.62 0 3.08 1.46 3.08 3.08V1167c0 1.78-1.46 3.08-3.08 3.08h-36.94v21.87h44.88c1.78 0 3.08 1.46 3.08 3.08v17.66c0 1.62-1.3 3.08-3.08 3.08H398.2c-1.78 0-3.08-1.46-3.08-3.08v-107.26Zm94.93 0c0-1.62 1.29-3.08 3.08-3.08h48.44c19.44 0 35.32 15.71 35.32 34.99 0 14.9-9.88 26.89-23.98 32.56l22.2 41.15c1.13 2.11 0 4.7-2.75 4.7h-21.55c-1.3 0-2.27-.81-2.59-1.46l-21.55-42.93h-11.18v41.31c0 1.62-1.46 3.08-3.08 3.08h-19.28c-1.78 0-3.08-1.46-3.08-3.08v-107.25.01Zm49.41 45.36c6.64 0 12.31-6.16 12.31-12.96 0-6.8-5.67-12.31-12.31-12.31h-23.98v25.27h23.98ZM52.1 0c14.3 0 24.88 4.43 34.61 13.3 1.29 1.14 1.29 2.86.14 4L75.7 28.88c-1 1-2.57 1-3.58 0-5.29-4.72-12.3-7.29-19.31-7.29-16.16 0-28.03 13.44-28.03 29.46 0 16.02 12.01 29.03 28.17 29.03 6.72 0 14.01-2.43 19.16-6.86 1-.86 2.86-.86 3.72.14l11.15 11.87c1 1 .86 2.86-.14 3.86-9.72 9.44-22.02 13.87-34.75 13.87C23.5 102.96.48 80.23.48 51.62.48 23.01 23.5 0 52.1 0Zm39.04 97.82L135.9 1.57c.43-.86 1.43-1.57 2.43-1.57h1.43c1 0 2 .71 2.43 1.57l44.76 96.24c.86 1.86-.29 3.72-2.43 3.72h-15.87c-2.57 0-3.72-.86-5-3.58l-5.15-11.3h-38.9l-5.15 11.44c-.71 1.72-2.29 3.43-5.15 3.43H93.57c-2.15 0-3.29-1.86-2.43-3.72v.02Zm58.77-30.61-10.87-23.6h-.14l-10.73 23.6h21.74Zm48.76-63.06c0-1.43 1.14-2.72 2.72-2.72h34.46c17.59 0 32.03 14.3 32.03 31.6s-14.44 32.18-31.89 32.18h-15.02v33.61c0 1.43-1.29 2.72-2.72 2.72h-16.87c-1.57 0-2.72-1.29-2.72-2.72V4.15h.01Zm35.9 40.18c6.15 0 11.3-4.86 11.3-11.3 0-6.01-5.15-10.58-11.3-10.58h-13.58v21.88h13.58Zm61.2-21.88h-20.45c-1.57 0-2.72-1.29-2.72-2.72V4.15c0-1.43 1.14-2.72 2.72-2.72h63.49c1.57 0 2.72 1.29 2.72 2.72v15.59c0 1.43-1.14 2.72-2.72 2.72h-20.45v76.36c0 1.43-1.29 2.72-2.72 2.72h-17.16c-1.43 0-2.72-1.29-2.72-2.72V22.45h.01Zm42.04 75.37 44.76-96.25C383 .71 384 0 385 0h1.43c1 0 2 .71 2.43 1.57l44.76 96.24c.86 1.86-.29 3.72-2.43 3.72h-15.87c-2.57 0-3.72-.86-5-3.58l-5.15-11.3h-38.9l-5.15 11.44c-.72 1.72-2.29 3.43-5.15 3.43h-15.73c-2.15 0-3.29-1.86-2.43-3.72v.02Zm58.77-30.61-10.87-23.6h-.14l-10.72 23.6h21.74-.01Zm48.76-63.06c0-1.43 1.29-2.72 2.72-2.72h17.16c1.43 0 2.72 1.29 2.72 2.72v94.67c0 1.43-1.29 2.72-2.72 2.72h-17.16c-1.43 0-2.72-1.29-2.72-2.72V4.15Zm47.05-1.58c0-1.43 1.29-2.57 2.72-2.57h3.58l57.06 54.91h.14V4.15c0-1.43 1.14-2.72 2.72-2.72h17.16c1.43 0 2.72 1.29 2.72 2.72v96.24c0 1.43-1.29 2.57-2.72 2.57h-2.29c-.43 0-1.57-.43-1.86-.71l-56.49-56.77h-.14v53.34c0 1.43-1.14 2.72-2.72 2.72h-17.02c-1.43 0-2.72-1.29-2.72-2.72l-.14-96.24v-.01Z"/></g><defs><clipPath id="a"><path fill="#fff" d="M0 0h578.48v1215.75H0z"/></clipPath></defs></svg>