<svg xmlns="http://www.w3.org/2000/svg" width="680" height="182" fill="none"><g fill="#FF0" clip-path="url(#a)"><path fill-opacity=".8" d="M679.72 61.38h-44.79V16.59h-35.85v44.79h-44.8v35.84h44.8v44.8h35.85v-44.8h44.79V61.38Z" opacity=".5"/><path d="M0 18.77c10.75-1.67 25.03-2.59 39.86-2.59 23.91 0 38.93 3.89 51.35 12.42 13.71 9.45 22.62 25.03 22.62 48.02 0 25.39-9.65 41.88-21.87 51.35-13.72 10.75-34.11 15.56-58.59 15.56-16.12 0-26.88-1.11-33.36-2.23V18.77H0Zm33.55 98.25c1.67.37 4.82.37 7.04.37 21.69.38 37.63-11.68 37.63-39.85 0-24.29-14.46-35.78-34.48-35.78-5.37 0-8.52.37-10.2.75v74.51h.01ZM118.44 18.77c9.46-1.48 23.73-2.6 40.41-2.6 19.1 0 32.81 2.6 42.27 9.64 7.97 6.12 12.42 15.02 12.42 27.26 0 15.56-11.67 26.68-21.5 30.21v.75c8.34 3.52 12.79 11.49 15.94 22.24 3.89 12.8 7.97 30.96 10.38 35.78h-34.29c-1.85-3.71-5.01-13.34-8.71-28.73-3.33-15.02-7.97-18.17-18.35-18.17h-5.37v46.9h-33.19V18.77h-.01Zm33.18 52.46h8.71c12.61 0 19.84-6.3 19.84-15.57s-6.12-14.65-17.24-14.83c-6.31 0-9.64.37-11.3.74v29.65l-.01.01ZM253.07 77.28c0-12.94-.4-24.1-.8-33.25h30.87l1.59 12.35h.4c7.37-9.56 18.32-14.54 31.67-14.54 20.51 0 40.43 18.12 40.43 49.99 0 35.86-23.31 52.39-44.62 52.39-11.15 0-19.72-4.38-23.3-9.36h-.4v46.61h-35.85V77.3l.01-.02Zm35.85 21.92c0 2.19.21 4.18.6 5.98 1.39 6.37 6.78 11.75 13.95 11.75 10.75 0 17.33-9.37 17.33-23.51 0-14.14-5.57-23.71-16.94-23.71-7.16 0-13.34 5.78-14.53 12.75-.4 1.4-.4 3-.4 4.58V99.2h-.01ZM361.38 77.09c0-15.53-.41-24.9-.8-33.06h30.67l1.2 17.72h.79c5.18-14.94 17.73-19.92 26.09-19.92 3.19 0 4.58 0 7.18.6v33.66c-2.6-.6-5.38-.99-9.17-.99-10.55 0-17.73 4.37-19.52 12.35-.39 1.79-.6 3.78-.6 6.17v48.4h-35.85V77.09h.01ZM468.31 16.93c0 9.56-7.17 17.13-18.52 17.13s-18.13-7.57-18.13-17.13c0-9.56 7.17-16.93 18.33-16.93 11.16 0 18.12 7.17 18.32 16.93Zm-36.25 27.09h35.85v97.99h-35.85V44.02ZM477.03 77.28c0-12.94-.4-24.29-.8-33.25h30.87l1.6 12.54h.8c3.59-5.18 12.95-14.74 29.28-14.74 22.91 0 35.25 15.54 35.25 42.42v57.76h-35.85V88.63c0-11.36-3.98-17.93-12.54-17.93-6.97 0-10.16 4.78-11.75 8.57-.8 1.79-1.01 4.58-1.01 7.17v55.57h-35.85V77.27v.01Z"/></g><defs><clipPath id="a"><path fill="#fff" d="M0 0h679.72v181.45H0z"/></clipPath></defs></svg>