<svg width="126" height="349" viewBox="0 0 126 349" fill="none" xmlns="http://www.w3.org/2000/svg">
<path d="M108.66 111.62H17.2876C10.4794 111.979 5.10453 106.596 4.7462 100.135L0.0879877 12.2029C-0.270337 8.97271 0.446312 6.10144 2.59626 3.58908C4.7462 1.43563 7.97112 0 11.196 0H114.393C117.26 0 120.485 1.07673 122.635 2.87127C124.785 5.38363 125.86 8.25489 125.86 11.4851L121.202 99.4176C121.202 106.237 115.827 111.262 109.019 111.262C109.019 111.979 108.66 111.979 108.66 111.62ZM11.196 8.97271C10.4794 8.97271 9.76275 9.33162 9.0461 9.69052C8.68777 10.4083 8.68777 11.1262 8.68777 11.844L13.346 99.4176C13.346 103.007 16.2126 103.007 17.2876 103.007H108.66C110.81 103.366 112.602 101.93 112.602 99.7765V99.4176L117.26 11.844C117.26 11.1262 116.902 10.0494 116.543 9.33162C116.543 9.33162 115.827 8.97271 114.393 8.97271H11.196ZM102.569 230.06H23.3791C16.5709 230.419 10.8377 225.036 10.4794 218.216L5.82118 130.643C5.46285 127.771 6.53783 124.541 8.68777 122.388C11.196 120.234 14.0626 118.799 17.2876 118.799H108.66C111.527 118.44 114.752 119.875 116.902 122.029C119.052 124.541 120.127 127.412 120.127 130.643L115.468 218.216C115.468 225.036 110.094 230.06 103.285 230.06C103.285 230.06 102.927 230.06 102.569 230.06ZM17.2876 127.412C16.5709 127.412 15.8543 127.771 15.1376 128.13C15.1376 128.13 14.7793 128.848 14.7793 130.284L19.4375 217.857C19.4375 221.446 22.3041 221.446 23.3791 221.446H102.927C105.077 221.805 106.869 220.37 106.869 218.216V217.857L111.527 130.284C111.527 129.566 111.169 128.489 110.81 127.771C110.094 127.412 109.377 127.412 108.66 127.412H17.2876ZM62.7948 348.5C31.9789 348.5 7.25447 323.376 7.25447 292.51C7.25447 261.644 32.3372 236.88 63.1531 236.88C93.969 236.88 118.693 262.003 118.693 292.51C118.693 323.735 93.969 348.5 62.7948 348.5C63.1531 348.5 63.1531 348.5 62.7948 348.5ZM62.7948 245.852C36.9954 245.852 15.8543 267.028 16.2126 293.228C16.2126 319.07 37.3537 340.245 63.5114 339.886C89.3108 339.886 110.094 318.711 110.094 292.869C110.094 267.028 88.9524 245.852 62.7948 245.852ZM62.7948 319.787C48.1035 319.787 35.9204 307.943 35.9204 292.869C35.9204 277.795 47.7451 265.951 62.7948 265.951C70.3196 265.951 77.8444 269.181 82.8609 274.924C84.6525 276.718 84.6525 279.231 82.8609 281.025C81.0693 282.461 78.2027 282.461 76.7694 280.666C73.1862 276.718 68.1696 274.565 62.7948 274.565C52.7617 274.565 44.8785 282.82 44.8785 292.51C44.8785 302.56 53.12 310.456 62.7948 310.456C67.453 310.456 72.1112 308.661 75.6944 305.072C77.8444 302.919 79.636 299.688 80.3526 296.458H69.6029C67.0946 296.458 65.303 294.664 65.303 292.151C65.303 289.639 67.0946 287.844 69.6029 287.844H85.3692C87.8775 287.844 89.6691 289.639 89.6691 292.151C89.6691 299.33 86.8025 306.149 81.7859 311.174C77.1277 316.916 70.3196 319.787 62.7948 319.787ZM62.7948 82.9078C48.1035 82.9078 35.9204 70.7049 35.9204 55.9897C35.9204 41.2745 48.1035 29.0716 62.7948 29.0716C77.486 29.0716 89.6691 41.2745 89.6691 55.9897C89.6691 70.7049 77.8444 82.9078 62.7948 82.9078ZM62.7948 38.0443C52.7617 38.0443 44.8785 46.2992 44.8785 55.9897C44.8785 65.6802 53.12 73.9351 62.7948 73.9351C72.4695 73.9351 80.711 65.6802 80.711 55.9897C81.0693 45.9403 72.8278 38.0443 62.7948 38.0443ZM62.7948 200.63C61.0031 200.63 59.5698 199.553 58.8532 198.117L44.8785 168.687V196.682C44.8785 199.194 43.0869 200.989 40.5786 200.989C38.0704 200.989 36.2787 199.194 36.2787 196.682V151.459C36.2787 148.947 38.0704 147.152 40.5786 147.152H41.6536C43.4452 147.152 44.8785 148.229 45.5952 149.665L62.7948 186.632L79.9943 150.024C80.711 148.588 82.1443 147.511 83.9359 147.511H85.0109C87.5191 147.511 89.3108 149.306 89.3108 151.818V196.682C89.3108 199.194 87.5191 200.989 85.0109 200.989C82.5026 200.989 80.711 199.194 80.711 196.682V168.328L66.7363 198.117C66.378 199.553 64.9447 200.63 62.7948 200.63Z" fill="#FFFF00"/>
</svg>
