<svg width="108" height="108" viewBox="0 0 108 108" fill="none" xmlns="http://www.w3.org/2000/svg">
<rect width="108" height="108" fill="#FFFF00"/>
<path d="M73.23 34.35C72.54 34.11 71.46 33.9 69.98 33.7C68.5 33.51 67.08 33.41 65.7 33.41C62.74 33.41 60.09 34.04 57.75 35.31C55.41 36.58 53.56 38.33 52.22 40.57C50.88 42.81 50.2 45.39 50.2 48.32V88.76H34V19.98H49.72V31.45H50.44C51.69 27.48 53.85 24.41 56.91 22.25C59.97 20.09 63.47 19 67.41 19C68.31 19 69.31 19.04 70.43 19.11C71.55 19.19 72.48 19.3 73.23 19.45V34.36V34.35Z" fill="black"/>
</svg>
